%FSLAX25Y25*%
%MOIN*%
G70*
G01*
G75*
G04 Layer_Physical_Order=1*
G04 Layer_Color=255*
%ADD10R,0.03150X0.03150*%
%ADD11R,0.03937X0.03937*%
%ADD12R,0.03740X0.03937*%
%ADD13O,0.01575X0.05906*%
%ADD14R,0.07087X0.07480*%
%ADD15R,0.06299X0.07480*%
%ADD16R,0.07284X0.05315*%
%ADD17R,0.05315X0.07284*%
%ADD18R,0.03937X0.03740*%
%ADD19R,0.08661X0.12992*%
%ADD20R,0.08661X0.03740*%
%ADD21C,0.01969*%
%ADD22C,0.00787*%
%ADD23C,0.01181*%
%ADD24C,0.03937*%
%ADD25O,0.04724X0.07480*%
%ADD26O,0.04134X0.04921*%
%ADD27C,0.07087*%
%ADD28O,0.03937X0.04724*%
%ADD29P,0.06494X8X202.5*%
%ADD30R,0.06000X0.06000*%
%ADD31C,0.23622*%
%ADD32C,0.04724*%
%ADD33C,0.02362*%
G36*
X58792Y88876D02*
X57714Y87955D01*
X56386Y86400D01*
X55317Y84657D01*
X54535Y82767D01*
X54057Y80779D01*
X53897Y78740D01*
X54057Y76701D01*
X54535Y74713D01*
X55317Y72824D01*
X56386Y71080D01*
X57714Y69525D01*
X59269Y68197D01*
X61013Y67128D01*
X62902Y66346D01*
X64890Y65868D01*
X66929Y65708D01*
X68968Y65868D01*
X70956Y66346D01*
X72846Y67128D01*
X74589Y68197D01*
X76144Y69525D01*
X77065Y70603D01*
X77534Y70430D01*
Y-70430D01*
X77065Y-70603D01*
X76144Y-69525D01*
X74589Y-68197D01*
X72846Y-67128D01*
X70956Y-66346D01*
X68968Y-65868D01*
X66929Y-65708D01*
X64890Y-65868D01*
X62902Y-66346D01*
X61013Y-67128D01*
X59269Y-68197D01*
X57714Y-69525D01*
X56386Y-71080D01*
X55317Y-72824D01*
X54535Y-74713D01*
X54057Y-76701D01*
X53897Y-78740D01*
X54057Y-80779D01*
X54535Y-82767D01*
X55317Y-84657D01*
X56386Y-86400D01*
X57714Y-87955D01*
X58792Y-88876D01*
X58619Y-89345D01*
X-58619D01*
X-58792Y-88876D01*
X-57714Y-87955D01*
X-56386Y-86400D01*
X-55317Y-84657D01*
X-54535Y-82767D01*
X-54057Y-80779D01*
X-53897Y-78740D01*
X-54057Y-76701D01*
X-54535Y-74713D01*
X-55317Y-72824D01*
X-56386Y-71080D01*
X-57714Y-69525D01*
X-59269Y-68197D01*
X-61013Y-67128D01*
X-62902Y-66346D01*
X-64890Y-65868D01*
X-66929Y-65708D01*
X-68968Y-65868D01*
X-70956Y-66346D01*
X-72846Y-67128D01*
X-74589Y-68197D01*
X-76144Y-69525D01*
X-77065Y-70603D01*
X-77534Y-70430D01*
Y50469D01*
X-55398D01*
Y60829D01*
X-77534D01*
Y70430D01*
X-77065Y70603D01*
X-76144Y69525D01*
X-74589Y68197D01*
X-72846Y67128D01*
X-70956Y66346D01*
X-68968Y65868D01*
X-66929Y65708D01*
X-64890Y65868D01*
X-62902Y66346D01*
X-61013Y67128D01*
X-59269Y68197D01*
X-57714Y69525D01*
X-56386Y71080D01*
X-55317Y72824D01*
X-54535Y74713D01*
X-54057Y76701D01*
X-53897Y78740D01*
X-54057Y80779D01*
X-54535Y82767D01*
X-55317Y84657D01*
X-56386Y86400D01*
X-57714Y87955D01*
X-59269Y89284D01*
X-59252Y89345D01*
X58619D01*
X58792Y88876D01*
D02*
G37*
%LPC*%
G36*
X-7909Y-69559D02*
X-12091D01*
X-14181Y-71650D01*
Y-75831D01*
X-12091Y-77921D01*
X-7909D01*
X-5819Y-75831D01*
Y-71650D01*
X-7909Y-69559D01*
D02*
G37*
G36*
X-17910D02*
X-22091D01*
X-24181Y-71650D01*
Y-75831D01*
X-22091Y-77921D01*
X-17910D01*
X-15819Y-75831D01*
Y-71650D01*
X-17910Y-69559D01*
D02*
G37*
G36*
X-37909D02*
X-42091D01*
X-44181Y-71650D01*
Y-75831D01*
X-42091Y-77921D01*
X-37909D01*
X-35819Y-75831D01*
Y-71650D01*
X-37909Y-69559D01*
D02*
G37*
G36*
X-27909D02*
X-32091D01*
X-34181Y-71650D01*
Y-75831D01*
X-32091Y-77921D01*
X-27909D01*
X-25819Y-75831D01*
Y-71650D01*
X-27909Y-69559D01*
D02*
G37*
G36*
X22091D02*
X17910D01*
X15819Y-71650D01*
Y-75831D01*
X17910Y-77921D01*
X22091D01*
X24181Y-75831D01*
Y-71650D01*
X22091Y-69559D01*
D02*
G37*
G36*
X32091D02*
X27909D01*
X25819Y-71650D01*
Y-75831D01*
X27909Y-77921D01*
X32091D01*
X34181Y-75831D01*
Y-71650D01*
X32091Y-69559D01*
D02*
G37*
G36*
X2090D02*
X-2090D01*
X-4181Y-71650D01*
Y-75831D01*
X-2090Y-77921D01*
X2090D01*
X4181Y-75831D01*
Y-71650D01*
X2090Y-69559D01*
D02*
G37*
G36*
X12091D02*
X7909D01*
X5819Y-71650D01*
Y-75831D01*
X7909Y-77921D01*
X12091D01*
X14181Y-75831D01*
Y-71650D01*
X12091Y-69559D01*
D02*
G37*
G36*
X42091Y-79559D02*
X37909D01*
X35819Y-81650D01*
Y-85831D01*
X37909Y-87921D01*
X42091D01*
X44181Y-85831D01*
Y-81650D01*
X42091Y-79559D01*
D02*
G37*
G36*
X-17910D02*
X-22091D01*
X-24181Y-81650D01*
Y-85831D01*
X-22091Y-87921D01*
X-17910D01*
X-15819Y-85831D01*
Y-81650D01*
X-17910Y-79559D01*
D02*
G37*
G36*
X-7909D02*
X-12091D01*
X-14181Y-81650D01*
Y-85831D01*
X-12091Y-87921D01*
X-7909D01*
X-5819Y-85831D01*
Y-81650D01*
X-7909Y-79559D01*
D02*
G37*
G36*
X-37909D02*
X-42091D01*
X-44181Y-81650D01*
Y-85831D01*
X-42091Y-87921D01*
X-37909D01*
X-35819Y-85831D01*
Y-81650D01*
X-37909Y-79559D01*
D02*
G37*
G36*
X-27909D02*
X-32091D01*
X-34181Y-81650D01*
Y-85831D01*
X-32091Y-87921D01*
X-27909D01*
X-25819Y-85831D01*
Y-81650D01*
X-27909Y-79559D01*
D02*
G37*
G36*
X22091D02*
X17910D01*
X15819Y-81650D01*
Y-85831D01*
X17910Y-87921D01*
X22091D01*
X24181Y-85831D01*
Y-81650D01*
X22091Y-79559D01*
D02*
G37*
G36*
X32091D02*
X27909D01*
X25819Y-81650D01*
Y-85831D01*
X27909Y-87921D01*
X32091D01*
X34181Y-85831D01*
Y-81650D01*
X32091Y-79559D01*
D02*
G37*
G36*
X2090D02*
X-2090D01*
X-4181Y-81650D01*
Y-85831D01*
X-2090Y-87921D01*
X2090D01*
X4181Y-85831D01*
Y-81650D01*
X2090Y-79559D01*
D02*
G37*
G36*
X12091D02*
X7909D01*
X5819Y-81650D01*
Y-85831D01*
X7909Y-87921D01*
X12091D01*
X14181Y-85831D01*
Y-81650D01*
X12091Y-79559D01*
D02*
G37*
G36*
X44181Y-69559D02*
X35819D01*
Y-77921D01*
X44181D01*
Y-69559D01*
D02*
G37*
G36*
X0Y52788D02*
X-976Y52660D01*
X-1886Y52283D01*
X-2668Y51683D01*
X-3267Y50902D01*
X-3644Y49992D01*
X-3772Y49016D01*
Y45079D01*
X-3644Y44102D01*
X-3267Y43192D01*
X-2668Y42411D01*
X-1886Y41812D01*
X-976Y41435D01*
X0Y41306D01*
X976Y41435D01*
X1886Y41812D01*
X2668Y42411D01*
X3267Y43192D01*
X3644Y44102D01*
X3772Y45079D01*
Y49016D01*
X3644Y49992D01*
X3267Y50902D01*
X2668Y51683D01*
X1886Y52283D01*
X976Y52660D01*
X0Y52788D01*
D02*
G37*
G36*
X31004Y57382D02*
X28445D01*
Y54724D01*
X31004D01*
Y57382D01*
D02*
G37*
G36*
X74213Y26673D02*
X71555D01*
Y24114D01*
X74213D01*
Y26673D01*
D02*
G37*
G36*
X8484Y35779D02*
X7559Y35657D01*
X6697Y35300D01*
X5957Y34732D01*
X5389Y33992D01*
X5032Y33130D01*
X4910Y32205D01*
X5032Y31280D01*
X5389Y30418D01*
X5957Y29678D01*
X6697Y29110D01*
X7559Y28753D01*
X8484Y28631D01*
X9409Y28753D01*
X10271Y29110D01*
X11011Y29678D01*
X11579Y30418D01*
X11936Y31280D01*
X12058Y32205D01*
X11936Y33130D01*
X11579Y33992D01*
X11011Y34732D01*
X10271Y35300D01*
X9409Y35657D01*
X8484Y35779D01*
D02*
G37*
G36*
X-30177Y85140D02*
X-30507Y85096D01*
X-31273Y84779D01*
X-31931Y84274D01*
X-32436Y83616D01*
X-32754Y82850D01*
X-32862Y82028D01*
Y81732D01*
X-30177D01*
Y85140D01*
D02*
G37*
G36*
X-9685Y85204D02*
X-10507Y85096D01*
X-11273Y84779D01*
X-11931Y84274D01*
X-11935Y84269D01*
X-12435D01*
X-12439Y84274D01*
X-13097Y84779D01*
X-13863Y85096D01*
X-14193Y85140D01*
Y81239D01*
X-15177D01*
Y85140D01*
X-15507Y85096D01*
X-16273Y84779D01*
X-16931Y84274D01*
X-16935Y84269D01*
X-17435D01*
X-17439Y84274D01*
X-18097Y84779D01*
X-18863Y85096D01*
X-19193Y85140D01*
Y81239D01*
X-20177D01*
Y85140D01*
X-20507Y85096D01*
X-21273Y84779D01*
X-21931Y84274D01*
X-21935Y84269D01*
X-22435D01*
X-22439Y84274D01*
X-23097Y84779D01*
X-23863Y85096D01*
X-24193Y85140D01*
Y81239D01*
X-25177D01*
Y85140D01*
X-25507Y85096D01*
X-26273Y84779D01*
X-26931Y84274D01*
X-26935Y84269D01*
X-27435D01*
X-27439Y84274D01*
X-28097Y84779D01*
X-28863Y85096D01*
X-29193Y85140D01*
Y81239D01*
X-29684D01*
Y80748D01*
X-32797D01*
X-32754Y80418D01*
X-32436Y79652D01*
X-31931Y78994D01*
X-31927Y78990D01*
Y78490D01*
X-31931Y78487D01*
X-32436Y77829D01*
X-32754Y77062D01*
X-32862Y76240D01*
Y75453D01*
X-32754Y74631D01*
X-32436Y73864D01*
X-31931Y73206D01*
X-31273Y72702D01*
X-30507Y72384D01*
X-29685Y72276D01*
X-28863Y72384D01*
X-28097Y72702D01*
X-27439Y73206D01*
X-27435Y73211D01*
X-26935D01*
X-26931Y73206D01*
X-26273Y72702D01*
X-25507Y72384D01*
X-24685Y72276D01*
X-23863Y72384D01*
X-23097Y72702D01*
X-22439Y73206D01*
X-22435Y73211D01*
X-21935D01*
X-21931Y73206D01*
X-21273Y72702D01*
X-20507Y72384D01*
X-19685Y72276D01*
X-18863Y72384D01*
X-18097Y72702D01*
X-17796Y72932D01*
X-13996Y69132D01*
Y42443D01*
X-25572Y30867D01*
X-25789Y30542D01*
X-25866Y30158D01*
Y25819D01*
X-25866Y25819D01*
X-25866D01*
X-25789Y25434D01*
X-25572Y25109D01*
X-20718Y20255D01*
X-20392Y20037D01*
X-20008Y19961D01*
X-293D01*
X91Y20037D01*
X417Y20255D01*
X1575Y21413D01*
X1896Y21166D01*
X2662Y20849D01*
X3484Y20741D01*
X4307Y20849D01*
X4752Y21033D01*
X5214Y20842D01*
X5389Y20418D01*
X5957Y19678D01*
X6697Y19110D01*
X7559Y18753D01*
X8484Y18631D01*
X9409Y18753D01*
X10271Y19110D01*
X11011Y19678D01*
X11579Y20418D01*
X11936Y21280D01*
X12058Y22205D01*
X11936Y23130D01*
X11579Y23992D01*
X11011Y24732D01*
X10271Y25300D01*
X9409Y25657D01*
X8484Y25779D01*
X7559Y25657D01*
X6981Y25417D01*
X6519Y25609D01*
X6235Y26293D01*
X5731Y26951D01*
X5073Y27456D01*
X4307Y27773D01*
X3484Y27882D01*
X2662Y27773D01*
X1896Y27456D01*
X1238Y26951D01*
X733Y26293D01*
X416Y25527D01*
X307Y24705D01*
Y23917D01*
X416Y23095D01*
X417Y23093D01*
X-708Y21968D01*
X-3464D01*
X-3742Y22384D01*
X-3447Y23095D01*
X-3339Y23917D01*
Y24705D01*
X-3447Y25527D01*
X-3765Y26293D01*
X-4269Y26951D01*
X-4927Y27456D01*
X-5694Y27773D01*
X-6516Y27882D01*
X-7338Y27773D01*
X-8104Y27456D01*
X-8762Y26951D01*
X-9267Y26293D01*
X-9584Y25527D01*
X-9692Y24705D01*
Y23917D01*
X-9584Y23095D01*
X-9290Y22384D01*
X-9567Y21968D01*
X-13464D01*
X-13742Y22384D01*
X-13447Y23095D01*
X-13339Y23917D01*
Y24705D01*
X-13447Y25527D01*
X-13765Y26293D01*
X-14269Y26951D01*
X-14274Y26955D01*
Y27455D01*
X-14269Y27458D01*
X-14266Y27463D01*
X-13766D01*
X-13762Y27458D01*
X-13104Y26954D01*
X-12338Y26636D01*
X-11516Y26528D01*
X-10694Y26636D01*
X-9927Y26954D01*
X-9269Y27458D01*
X-8765Y28116D01*
X-8447Y28883D01*
X-8339Y29705D01*
Y30492D01*
X-8447Y31314D01*
X-8765Y32081D01*
X-9269Y32738D01*
X-9927Y33243D01*
X-10512Y33486D01*
Y36629D01*
X-10050Y36820D01*
X-4573Y31342D01*
X-4584Y31314D01*
X-4693Y30492D01*
Y29705D01*
X-4584Y28883D01*
X-4267Y28116D01*
X-3762Y27458D01*
X-3104Y26954D01*
X-2338Y26636D01*
X-1516Y26528D01*
X-693Y26636D01*
X73Y26954D01*
X731Y27458D01*
X1235Y28116D01*
X1553Y28883D01*
X1661Y29705D01*
Y30492D01*
X1553Y31314D01*
X1235Y32081D01*
X731Y32738D01*
X73Y33243D01*
X-693Y33561D01*
X-1516Y33669D01*
X-2338Y33561D01*
X-3104Y33243D01*
X-3405Y33013D01*
X-9134Y38742D01*
Y65543D01*
X-8561Y65657D01*
X-7975Y66049D01*
X-7584Y66635D01*
X-7446Y67326D01*
X-7584Y68017D01*
X-7975Y68603D01*
X-8561Y68995D01*
X-9252Y69133D01*
X-9944Y68995D01*
X-10071Y68910D01*
X-10512Y69145D01*
Y72006D01*
X-10136Y72335D01*
X-9685Y72276D01*
X-8863Y72384D01*
X-8097Y72702D01*
X-7439Y73206D01*
X-6934Y73864D01*
X-6617Y74631D01*
X-6508Y75453D01*
Y76240D01*
X-6617Y77062D01*
X-6934Y77829D01*
X-7439Y78487D01*
X-7444Y78490D01*
Y78990D01*
X-7439Y78994D01*
X-6934Y79652D01*
X-6617Y80418D01*
X-6508Y81240D01*
Y82028D01*
X-6617Y82850D01*
X-6934Y83616D01*
X-7439Y84274D01*
X-8097Y84779D01*
X-8863Y85096D01*
X-9685Y85204D01*
D02*
G37*
G36*
X34547Y57382D02*
X31988D01*
Y54724D01*
X34547D01*
Y57382D01*
D02*
G37*
G36*
X32677Y75826D02*
X31909Y75673D01*
X31398Y75331D01*
X30886Y75673D01*
X30118Y75826D01*
X29350Y75673D01*
X28839Y75331D01*
X28327Y75673D01*
X27559Y75826D01*
X26791Y75673D01*
X26280Y75331D01*
X25768Y75673D01*
X25000Y75826D01*
X24232Y75673D01*
X23581Y75238D01*
X23146Y74587D01*
X22993Y73819D01*
Y69488D01*
X23146Y68720D01*
X23581Y68069D01*
X24232Y67634D01*
X25000Y67481D01*
X25768Y67634D01*
X26280Y67976D01*
X26791Y67634D01*
X27559Y67481D01*
X28058Y67580D01*
X28445Y67263D01*
Y61377D01*
X28445Y61377D01*
X28445D01*
X28445Y61024D01*
X28445Y61024D01*
X28445D01*
D01*
Y58366D01*
X34547D01*
Y59842D01*
X34547Y59842D01*
X34901Y59842D01*
X34901Y59842D01*
Y59842D01*
X43701D01*
Y58169D01*
X54724D01*
Y64272D01*
X50093D01*
X48225Y66139D01*
X47650Y66580D01*
X46979Y66858D01*
X46260Y66953D01*
X44193D01*
Y67520D01*
X34547D01*
Y67323D01*
X34547D01*
X34547Y67323D01*
X34547Y67323D01*
X33841D01*
X33696Y67801D01*
X34096Y68069D01*
X34532Y68720D01*
X34684Y69488D01*
Y73819D01*
X34532Y74587D01*
X34096Y75238D01*
X33445Y75673D01*
X32677Y75826D01*
D02*
G37*
G36*
X74213Y23130D02*
X71555D01*
Y20571D01*
X74213D01*
Y23130D01*
D02*
G37*
G36*
X-35433Y-20027D02*
X-36873Y-20217D01*
X-38215Y-20773D01*
X-39367Y-21657D01*
X-40251Y-22809D01*
X-40807Y-24151D01*
X-40996Y-25591D01*
X-40807Y-27031D01*
X-40251Y-28372D01*
X-39367Y-29524D01*
X-38215Y-30409D01*
X-36873Y-30964D01*
X-35433Y-31154D01*
X-33993Y-30964D01*
X-32651Y-30409D01*
X-31499Y-29524D01*
X-30615Y-28372D01*
X-30059Y-27031D01*
X-29870Y-25591D01*
X-30059Y-24151D01*
X-30615Y-22809D01*
X-31499Y-21657D01*
X-32651Y-20773D01*
X-33993Y-20217D01*
X-35433Y-20027D01*
D02*
G37*
G36*
X15000Y-16036D02*
X14178Y-16144D01*
X13412Y-16461D01*
X12754Y-16966D01*
X12750Y-16971D01*
X12250D01*
X12246Y-16966D01*
X11588Y-16461D01*
X10822Y-16144D01*
X10000Y-16036D01*
X9178Y-16144D01*
X8412Y-16461D01*
X7754Y-16966D01*
X7750Y-16971D01*
X7250D01*
X7246Y-16966D01*
X6588Y-16461D01*
X5822Y-16144D01*
X5000Y-16036D01*
X4178Y-16144D01*
X3412Y-16461D01*
X2754Y-16966D01*
X2750Y-16971D01*
X2250D01*
X2246Y-16966D01*
X1588Y-16461D01*
X822Y-16144D01*
X0Y-16036D01*
X-822Y-16144D01*
X-1588Y-16461D01*
X-2246Y-16966D01*
X-2250Y-16971D01*
X-2750D01*
X-2754Y-16966D01*
X-3412Y-16461D01*
X-4178Y-16144D01*
X-5000Y-16036D01*
X-5822Y-16144D01*
X-6588Y-16461D01*
X-7246Y-16966D01*
X-7250Y-16971D01*
X-7750D01*
X-7754Y-16966D01*
X-8412Y-16461D01*
X-9178Y-16144D01*
X-10000Y-16036D01*
X-10822Y-16144D01*
X-11588Y-16461D01*
X-12246Y-16966D01*
X-12250Y-16971D01*
X-12750D01*
X-12754Y-16966D01*
X-13412Y-16461D01*
X-14178Y-16144D01*
X-15000Y-16036D01*
X-15822Y-16144D01*
X-16588Y-16461D01*
X-17246Y-16966D01*
X-17250Y-16971D01*
X-17750D01*
X-17754Y-16966D01*
X-18412Y-16461D01*
X-19178Y-16144D01*
X-20000Y-16036D01*
X-20822Y-16144D01*
X-21588Y-16461D01*
X-22246Y-16966D01*
X-22250Y-16971D01*
X-22750D01*
X-22754Y-16966D01*
X-23412Y-16461D01*
X-24178Y-16144D01*
X-25000Y-16036D01*
X-25822Y-16144D01*
X-26588Y-16461D01*
X-27246Y-16966D01*
X-27751Y-17624D01*
X-28069Y-18390D01*
X-28177Y-19213D01*
Y-20000D01*
X-28069Y-20822D01*
X-27751Y-21588D01*
X-27246Y-22246D01*
X-27242Y-22250D01*
Y-22750D01*
X-27246Y-22754D01*
X-27751Y-23412D01*
X-28069Y-24178D01*
X-28177Y-25000D01*
Y-25787D01*
X-28069Y-26610D01*
X-27751Y-27376D01*
X-27246Y-28034D01*
X-26588Y-28539D01*
X-25822Y-28856D01*
X-25000Y-28964D01*
X-24178Y-28856D01*
X-23412Y-28539D01*
X-22754Y-28034D01*
X-22750Y-28029D01*
X-22250D01*
X-22246Y-28034D01*
X-21588Y-28539D01*
X-20822Y-28856D01*
X-20000Y-28964D01*
X-19178Y-28856D01*
X-18412Y-28539D01*
X-17754Y-28034D01*
X-17750Y-28029D01*
X-17250D01*
X-17246Y-28034D01*
X-16588Y-28539D01*
X-15822Y-28856D01*
X-15000Y-28964D01*
X-14178Y-28856D01*
X-13412Y-28539D01*
X-12754Y-28034D01*
X-12750Y-28029D01*
X-12250D01*
X-12246Y-28034D01*
X-11588Y-28539D01*
X-10822Y-28856D01*
X-10000Y-28964D01*
X-9178Y-28856D01*
X-8412Y-28539D01*
X-7754Y-28034D01*
X-7750Y-28029D01*
X-7250D01*
X-7246Y-28034D01*
X-6588Y-28539D01*
X-5822Y-28856D01*
X-5000Y-28964D01*
X-4178Y-28856D01*
X-3412Y-28539D01*
X-2754Y-28034D01*
X-2750Y-28029D01*
X-2250D01*
X-2246Y-28034D01*
X-1588Y-28539D01*
X-822Y-28856D01*
X0Y-28964D01*
X822Y-28856D01*
X1588Y-28539D01*
X2246Y-28034D01*
X2250Y-28029D01*
X2750D01*
X2754Y-28034D01*
X3412Y-28539D01*
X4178Y-28856D01*
X5000Y-28964D01*
X5822Y-28856D01*
X6588Y-28539D01*
X7246Y-28034D01*
X7250Y-28029D01*
X7750D01*
X7754Y-28034D01*
X8412Y-28539D01*
X9178Y-28856D01*
X10000Y-28964D01*
X10822Y-28856D01*
X11588Y-28539D01*
X12246Y-28034D01*
X12250Y-28029D01*
X12750D01*
X12754Y-28034D01*
X13412Y-28539D01*
X14178Y-28856D01*
X15000Y-28964D01*
X15822Y-28856D01*
X16588Y-28539D01*
X17246Y-28034D01*
X17751Y-27376D01*
X18068Y-26610D01*
X18177Y-25787D01*
Y-25000D01*
X18068Y-24178D01*
X17751Y-23412D01*
X17246Y-22754D01*
X17242Y-22750D01*
Y-22250D01*
X17246Y-22246D01*
X17751Y-21588D01*
X18068Y-20822D01*
X18177Y-20000D01*
Y-19213D01*
X18068Y-18390D01*
X17751Y-17624D01*
X17246Y-16966D01*
X16588Y-16461D01*
X15822Y-16144D01*
X15000Y-16036D01*
D02*
G37*
G36*
X68701Y-55610D02*
X66437D01*
Y-57874D01*
X68701D01*
Y-55610D01*
D02*
G37*
G36*
Y-52362D02*
X66437D01*
Y-54626D01*
X68701D01*
Y-52362D01*
D02*
G37*
G36*
X35433Y31154D02*
X33993Y30964D01*
X32651Y30409D01*
X31499Y29524D01*
X30615Y28372D01*
X30059Y27031D01*
X29870Y25591D01*
X30059Y24151D01*
X30615Y22809D01*
X31499Y21657D01*
X32651Y20773D01*
X33993Y20217D01*
X35433Y20027D01*
X36873Y20217D01*
X38215Y20773D01*
X39367Y21657D01*
X40251Y22809D01*
X40807Y24151D01*
X40996Y25591D01*
X40807Y27031D01*
X40251Y28372D01*
X39367Y29524D01*
X38215Y30409D01*
X36873Y30964D01*
X35433Y31154D01*
D02*
G37*
G36*
X-4331Y63322D02*
X-5022Y63185D01*
X-5608Y62793D01*
X-6000Y62207D01*
X-6137Y61516D01*
X-6000Y60825D01*
X-5608Y60238D01*
X-5022Y59847D01*
X-4331Y59709D01*
X-3639Y59847D01*
X-3545Y59910D01*
X4650D01*
X23077Y41483D01*
X23077Y41483D01*
X23077D01*
X23077Y41483D01*
X23077D01*
X23077Y41483D01*
Y41483D01*
Y41483D01*
D01*
D01*
X23077D01*
Y41483D01*
X23598Y41135D01*
X23700Y41114D01*
X24213Y41012D01*
X24213Y41012D01*
X43701D01*
Y40059D01*
X50485D01*
X57480Y33064D01*
Y26673D01*
X61614D01*
Y20571D01*
X63158D01*
Y-1575D01*
X59941D01*
Y-3394D01*
X46969D01*
X46968Y-3394D01*
X46354Y-3517D01*
X46181Y-3632D01*
X45833Y-3865D01*
X45833Y-3865D01*
X36303Y-13394D01*
X29449D01*
X29127Y-12617D01*
X28370Y-11631D01*
X27383Y-10873D01*
X26233Y-10397D01*
X25000Y-10235D01*
X23767Y-10397D01*
X22617Y-10873D01*
X21631Y-11631D01*
X20873Y-12617D01*
X20397Y-13767D01*
X20235Y-15000D01*
X20397Y-16233D01*
X20873Y-17383D01*
X21631Y-18370D01*
X22617Y-19127D01*
X23767Y-19603D01*
X25000Y-19765D01*
X26233Y-19603D01*
X27383Y-19127D01*
X28370Y-18370D01*
X29127Y-17383D01*
X29449Y-16606D01*
X36968D01*
X36968Y-16606D01*
X37481Y-16504D01*
X37583Y-16483D01*
X38104Y-16135D01*
X38104Y-16135D01*
X38104Y-16135D01*
X47634Y-6606D01*
X59941D01*
Y-7520D01*
X59941Y-7520D01*
X59941D01*
X59941Y-7874D01*
X59941Y-7874D01*
X59941D01*
D01*
Y-10531D01*
X66043D01*
Y-8228D01*
X66043Y-8228D01*
X66043D01*
X66043Y-7874D01*
Y-7874D01*
D01*
X66043D01*
X66043Y-7874D01*
X66043Y-7520D01*
X66043Y-7520D01*
X66043D01*
Y-6606D01*
X67402D01*
X67724Y-7383D01*
X68481Y-8370D01*
X69261Y-8968D01*
Y-41855D01*
X67021Y-44094D01*
X63346D01*
X63346Y-44094D01*
Y-44094D01*
X62992Y-44094D01*
X62992D01*
D01*
X62639Y-44094D01*
X62639Y-44094D01*
Y-44094D01*
X56693D01*
Y-50394D01*
X58835D01*
Y-52362D01*
X57284D01*
Y-57874D01*
X62795D01*
Y-57874D01*
X62795D01*
X62795Y-57874D01*
X63189D01*
Y-57874D01*
X65453D01*
Y-55119D01*
Y-52362D01*
X63189D01*
D01*
D01*
X63189Y-52362D01*
X62795D01*
Y-52362D01*
X61244D01*
Y-50394D01*
X62992D01*
Y-50394D01*
X62992D01*
X62992Y-50394D01*
X63346Y-50394D01*
X63346Y-50394D01*
Y-50394D01*
X69291D01*
Y-46365D01*
X72001Y-43655D01*
X72001Y-43655D01*
X72350Y-43134D01*
X72472Y-42520D01*
Y-9683D01*
X73084Y-9603D01*
X74233Y-9127D01*
X75220Y-8370D01*
X75977Y-7383D01*
X76453Y-6233D01*
X76616Y-5000D01*
X76453Y-3767D01*
X75977Y-2617D01*
X75220Y-1630D01*
X74233Y-873D01*
X73084Y-397D01*
X71850Y-235D01*
X70617Y-397D01*
X69468Y-873D01*
X68481Y-1630D01*
X67724Y-2617D01*
X67402Y-3394D01*
X66369D01*
Y20571D01*
X67913D01*
Y20571D01*
X67913D01*
X67913Y20571D01*
X68267Y20571D01*
X68267Y20571D01*
Y20571D01*
X70571D01*
Y23621D01*
Y26673D01*
X68267D01*
X68267Y26673D01*
Y26673D01*
X67913Y26673D01*
X67913D01*
D01*
X67560Y26673D01*
X67560Y26673D01*
Y26673D01*
X66369D01*
Y28051D01*
X66369Y28051D01*
X66268Y28564D01*
X66247Y28666D01*
X65899Y29186D01*
X65158Y29928D01*
Y36319D01*
X58767D01*
X54724Y40361D01*
Y46161D01*
X43701D01*
Y44224D01*
X24878D01*
X6450Y62651D01*
X5929Y62999D01*
X5827Y63020D01*
X5315Y63121D01*
X5315Y63121D01*
X-3545D01*
X-3639Y63185D01*
X-4331Y63322D01*
D02*
G37*
G36*
X62500Y-11516D02*
X59941D01*
Y-14173D01*
X62500D01*
Y-11516D01*
D02*
G37*
G36*
X66043D02*
X63484D01*
Y-14173D01*
X66043D01*
Y-11516D01*
D02*
G37*
%LPD*%
D10*
X60039Y-55118D02*
D03*
X65945D02*
D03*
D11*
X59842Y-47244D02*
D03*
X66142D02*
D03*
D12*
X62992Y-4724D02*
D03*
Y-11024D02*
D03*
X31496Y64173D02*
D03*
Y57874D02*
D03*
D13*
X27559Y71653D02*
D03*
X25000D02*
D03*
X22441D02*
D03*
X30118D02*
D03*
X32677D02*
D03*
D14*
X23031Y82677D02*
D03*
X32087D02*
D03*
D15*
X14173D02*
D03*
X40945D02*
D03*
D16*
X39370Y63681D02*
D03*
Y52461D02*
D03*
D17*
X61319Y31496D02*
D03*
X72539D02*
D03*
D18*
X64764Y23622D02*
D03*
X71063D02*
D03*
D19*
X72835Y52165D02*
D03*
D20*
X49213Y43110D02*
D03*
Y52165D02*
D03*
Y61221D02*
D03*
D21*
X33898Y-15000D02*
X36968D01*
X64764Y-5000D02*
X71850D01*
X64764D02*
Y23622D01*
X70866Y-5984D02*
X71850Y-5000D01*
X70866Y-42520D02*
Y-5984D01*
X66142Y-47244D02*
X70866Y-42520D01*
X48720Y42618D02*
X49213Y43110D01*
X24213Y42618D02*
X48720D01*
X5315Y61516D02*
X24213Y42618D01*
X-4331Y61516D02*
X5315D01*
X49213Y43110D02*
X49705D01*
X61319Y31496D01*
X64764Y28051D01*
Y23622D02*
Y28051D01*
X46968Y-5000D02*
X71850D01*
X36968Y-15000D02*
X46968Y-5000D01*
X25000Y-15000D02*
X33898D01*
D22*
X-19685Y76240D02*
X-12992Y69547D01*
Y42028D02*
Y69547D01*
X-24862Y30158D02*
X-12992Y42028D01*
X-11516Y29705D02*
Y74410D01*
X-24862Y25819D02*
Y30158D01*
Y25819D02*
X-20008Y20965D01*
X-293D01*
X3447Y24705D01*
X3484D01*
X-10138Y66441D02*
X-9252Y67326D01*
X-10138Y38327D02*
Y66441D01*
Y38327D02*
X-1516Y29705D01*
X-11516Y74410D02*
X-9685Y76240D01*
D23*
X59842Y-47244D02*
X60039Y-47441D01*
Y-55118D02*
Y-47441D01*
X31496Y64173D02*
X32087Y64764D01*
Y71063D01*
X32677Y71653D01*
D24*
X41339Y75787D02*
Y82677D01*
X37205Y52165D02*
X49213D01*
X72835D01*
X31496Y57874D02*
X37205Y52165D01*
X31496Y64173D02*
X46260D01*
X49213Y61221D01*
X19488Y71653D02*
X21457D01*
X18701Y70866D02*
X19488Y71653D01*
X11122Y82677D02*
X13780D01*
X-3653D02*
X11122D01*
X32087D02*
X41339D01*
X23031D02*
X32087D01*
X13780D02*
X23031D01*
X36417Y70866D02*
X41339Y75787D01*
X-7728Y86752D02*
X-3653Y82677D01*
X-11642Y86752D02*
X-7728D01*
X-14410Y83985D02*
X-11642Y86752D01*
X-14410Y81516D02*
Y83985D01*
X-14685Y81240D02*
X-14410Y81516D01*
X-19685Y81240D02*
X-14685D01*
X-24685D02*
X-19685D01*
X-29685D02*
X-24685D01*
D25*
X11122Y82677D02*
D03*
X43996D02*
D03*
D26*
X18701Y70866D02*
D03*
X36417D02*
D03*
D27*
X71850Y-5000D02*
D03*
Y5000D02*
D03*
X25000Y-15000D02*
D03*
Y-25000D02*
D03*
D28*
X-9685Y81634D02*
D03*
Y75846D02*
D03*
X-14685Y81634D02*
D03*
Y75846D02*
D03*
X-19685Y81634D02*
D03*
Y75846D02*
D03*
X-24685Y81634D02*
D03*
Y75846D02*
D03*
X-29685Y81634D02*
D03*
Y75846D02*
D03*
X-25000Y-25394D02*
D03*
Y-19606D02*
D03*
X-20000Y-25394D02*
D03*
Y-19606D02*
D03*
X-15000Y-25394D02*
D03*
Y-19606D02*
D03*
X-10000Y-25394D02*
D03*
Y-19606D02*
D03*
X15000Y-25394D02*
D03*
Y-19606D02*
D03*
X10000D02*
D03*
Y-25394D02*
D03*
X5000Y-19606D02*
D03*
Y-25394D02*
D03*
X0Y-19606D02*
D03*
Y-25394D02*
D03*
X-5000Y-19606D02*
D03*
Y-25394D02*
D03*
X3484Y30098D02*
D03*
Y24311D02*
D03*
X-1516Y30098D02*
D03*
Y24311D02*
D03*
X-6516Y30098D02*
D03*
Y24311D02*
D03*
X-11516Y30098D02*
D03*
Y24311D02*
D03*
X-16516Y30098D02*
D03*
Y24311D02*
D03*
D29*
X-40000Y-73740D02*
D03*
Y-83740D02*
D03*
X20000D02*
D03*
Y-73740D02*
D03*
X30000Y-83740D02*
D03*
Y-73740D02*
D03*
X40000Y-83740D02*
D03*
X10000Y-73740D02*
D03*
Y-83740D02*
D03*
X0Y-73740D02*
D03*
Y-83740D02*
D03*
X-30000D02*
D03*
Y-73740D02*
D03*
X-20000Y-83740D02*
D03*
Y-73740D02*
D03*
X-10000D02*
D03*
Y-83740D02*
D03*
D30*
X40000Y-73740D02*
D03*
D31*
X-66929Y-78740D02*
D03*
X66929D02*
D03*
Y78740D02*
D03*
X-66929D02*
D03*
D32*
X-35433Y-25591D02*
D03*
X35433Y25591D02*
D03*
X-21516Y27205D02*
D03*
X8484Y22205D02*
D03*
Y32205D02*
D03*
D33*
X-4331Y61516D02*
D03*
X-9252Y67326D02*
D03*
M02*
