%FSLAX25Y25*%
%MOIN*%
G70*
G01*
G75*
G04 Layer_Color=65535*
%ADD10R,0.03150X0.03150*%
%ADD11R,0.03937X0.03937*%
%ADD12R,0.03740X0.03937*%
%ADD13O,0.01575X0.05906*%
%ADD14R,0.07087X0.07480*%
%ADD15R,0.06299X0.07480*%
%ADD16R,0.07284X0.05315*%
%ADD17R,0.05315X0.07284*%
%ADD18R,0.03937X0.03740*%
%ADD19R,0.08661X0.12992*%
%ADD20R,0.08661X0.03740*%
%ADD21C,0.01969*%
%ADD22C,0.00787*%
%ADD23C,0.01181*%
%ADD24C,0.03937*%
%ADD25O,0.04724X0.07480*%
%ADD26O,0.04134X0.04921*%
%ADD27C,0.07087*%
%ADD28O,0.03937X0.04724*%
%ADD29P,0.06494X8X202.5*%
%ADD30R,0.06000X0.06000*%
%ADD31C,0.23622*%
%ADD32C,0.04724*%
%ADD33C,0.02362*%
%ADD34R,0.03937X0.03937*%
%ADD35C,0.02362*%
%ADD36C,0.00984*%
%ADD37C,0.01000*%
%ADD38C,0.00591*%
%ADD39C,0.00492*%
D22*
X62402Y-53642D02*
X63583Y-55118D01*
X62402Y-56595D02*
X63583Y-55118D01*
X68504Y-56299D02*
Y-53937D01*
X62598Y-45669D02*
X63386D01*
X62598Y-48819D02*
X63386D01*
X64468Y-8268D02*
Y-7480D01*
X61516Y-8268D02*
Y-7480D01*
X42618Y56693D02*
Y59449D01*
X36122Y56693D02*
Y59449D01*
X32972Y60630D02*
Y61417D01*
X30020Y60630D02*
Y61417D01*
X65551Y34744D02*
X68307D01*
X65551Y28248D02*
X68307D01*
X67520Y25098D02*
X68307D01*
X67520Y22146D02*
X68307D01*
X-11185Y85240D02*
Y86740D01*
X-12185Y86240D02*
X-11185Y86740D01*
X-12185Y86240D02*
X-11185Y85240D01*
X-32283Y85433D02*
X-29528D01*
X-32283Y83858D02*
Y85433D01*
Y72047D02*
X-29528D01*
X-32283D02*
Y73622D01*
X-9843Y72047D02*
X-7087D01*
Y73622D01*
Y83858D02*
Y85433D01*
X-9843D02*
X-7087D01*
X55118Y38976D02*
X66929D01*
X55118Y65354D02*
X66929D01*
Y38976D02*
Y65354D01*
X55118Y38976D02*
Y65354D01*
X14842Y-15807D02*
X17598D01*
Y-17382D02*
Y-15807D01*
Y-29193D02*
Y-27618D01*
X14842Y-29193D02*
X17598D01*
X-27598D02*
Y-27618D01*
Y-29193D02*
X-24843D01*
X-27598Y-17382D02*
Y-15807D01*
X-24843D01*
X-19114Y33898D02*
X-16358D01*
X-19114Y32323D02*
Y33898D01*
Y20512D02*
X-16358D01*
X-19114D02*
Y22087D01*
X3327Y20512D02*
X6083D01*
Y22087D01*
Y32323D02*
Y33898D01*
X3327D02*
X6083D01*
X-62992Y-56056D02*
X-66928Y-57556D01*
X-62992Y-59055D01*
X-64304Y-58493D02*
Y-56618D01*
X-65054Y-52889D02*
X-65429Y-53263D01*
X-65616Y-53638D01*
Y-54201D01*
X-65429Y-54575D01*
X-65054Y-54950D01*
X-64492Y-55138D01*
X-64117D01*
X-63554Y-54950D01*
X-63180Y-54575D01*
X-62992Y-54201D01*
Y-53638D01*
X-63180Y-53263D01*
X-63554Y-52889D01*
X-66928Y-51483D02*
X-63742D01*
X-63180Y-51295D01*
X-62992Y-50920D01*
Y-50546D01*
X-65616Y-52045D02*
Y-50733D01*
X-66928Y-49608D02*
X-66741Y-49421D01*
X-66928Y-49233D01*
X-67116Y-49421D01*
X-66928Y-49608D01*
X-65616Y-49421D02*
X-62992D01*
X-65616Y-48540D02*
X-62992Y-47415D01*
X-65616Y-46291D02*
X-62992Y-47415D01*
X-66928Y-45279D02*
X-66741Y-45091D01*
X-66928Y-44904D01*
X-67116Y-45091D01*
X-66928Y-45279D01*
X-65616Y-45091D02*
X-62992D01*
X-66928Y-43648D02*
X-63742D01*
X-63180Y-43460D01*
X-62992Y-43086D01*
Y-42711D01*
X-65616Y-44210D02*
Y-42898D01*
Y-41961D02*
X-62992Y-40836D01*
X-65616Y-39712D02*
X-62992Y-40836D01*
X-62242Y-41211D01*
X-61867Y-41586D01*
X-61680Y-41961D01*
Y-42148D01*
X-66928Y-34651D02*
X-62992D01*
X-66928Y-35963D02*
Y-33339D01*
X-65616Y-32870D02*
X-62992D01*
X-64492D02*
X-65054Y-32683D01*
X-65429Y-32308D01*
X-65616Y-31933D01*
Y-31371D01*
Y-28765D02*
X-62992D01*
X-65054D02*
X-65429Y-29140D01*
X-65616Y-29515D01*
Y-30077D01*
X-65429Y-30452D01*
X-65054Y-30827D01*
X-64492Y-31015D01*
X-64117D01*
X-63554Y-30827D01*
X-63180Y-30452D01*
X-62992Y-30077D01*
Y-29515D01*
X-63180Y-29140D01*
X-63554Y-28765D01*
X-65054Y-25466D02*
X-65429Y-25841D01*
X-65616Y-26216D01*
Y-26779D01*
X-65429Y-27153D01*
X-65054Y-27528D01*
X-64492Y-27716D01*
X-64117D01*
X-63554Y-27528D01*
X-63180Y-27153D01*
X-62992Y-26779D01*
Y-26216D01*
X-63180Y-25841D01*
X-63554Y-25466D01*
X-66928Y-24623D02*
X-62992D01*
X-65616Y-22749D02*
X-63742Y-24623D01*
X-64492Y-23873D02*
X-62992Y-22561D01*
X-64492Y-21943D02*
Y-19693D01*
X-64867D01*
X-65241Y-19881D01*
X-65429Y-20068D01*
X-65616Y-20443D01*
Y-21005D01*
X-65429Y-21380D01*
X-65054Y-21755D01*
X-64492Y-21943D01*
X-64117D01*
X-63554Y-21755D01*
X-63180Y-21380D01*
X-62992Y-21005D01*
Y-20443D01*
X-63180Y-20068D01*
X-63554Y-19693D01*
X-65616Y-18850D02*
X-62992D01*
X-64492D02*
X-65054Y-18663D01*
X-65429Y-18288D01*
X-65616Y-17913D01*
Y-17350D01*
X-66928Y-12590D02*
X-62992D01*
X-66928Y-13902D02*
Y-11278D01*
X-64492Y-10809D02*
Y-8560D01*
X-64867D01*
X-65241Y-8747D01*
X-65429Y-8935D01*
X-65616Y-9309D01*
Y-9872D01*
X-65429Y-10247D01*
X-65054Y-10622D01*
X-64492Y-10809D01*
X-64117D01*
X-63554Y-10622D01*
X-63180Y-10247D01*
X-62992Y-9872D01*
Y-9309D01*
X-63180Y-8935D01*
X-63554Y-8560D01*
X-65054Y-5655D02*
X-65429Y-5842D01*
X-65616Y-6404D01*
Y-6966D01*
X-65429Y-7529D01*
X-65054Y-7716D01*
X-64679Y-7529D01*
X-64492Y-7154D01*
X-64304Y-6217D01*
X-64117Y-5842D01*
X-63742Y-5655D01*
X-63554D01*
X-63180Y-5842D01*
X-62992Y-6404D01*
Y-6966D01*
X-63180Y-7529D01*
X-63554Y-7716D01*
X-66928Y-4267D02*
X-63742D01*
X-63180Y-4080D01*
X-62992Y-3705D01*
Y-3330D01*
X-65616Y-4830D02*
Y-3518D01*
X-64492Y-2768D02*
Y-519D01*
X-64867D01*
X-65241Y-706D01*
X-65429Y-894D01*
X-65616Y-1268D01*
Y-1831D01*
X-65429Y-2206D01*
X-65054Y-2581D01*
X-64492Y-2768D01*
X-64117D01*
X-63554Y-2581D01*
X-63180Y-2206D01*
X-62992Y-1831D01*
Y-1268D01*
X-63180Y-894D01*
X-63554Y-519D01*
X-65616Y325D02*
X-62992D01*
X-64492D02*
X-65054Y512D01*
X-65429Y887D01*
X-65616Y1262D01*
Y1824D01*
X-59054Y-57930D02*
X-58867Y-58493D01*
X-58305Y-58868D01*
X-57367Y-59055D01*
X-56805D01*
X-55868Y-58868D01*
X-55306Y-58493D01*
X-55118Y-57930D01*
Y-57556D01*
X-55306Y-56993D01*
X-55868Y-56618D01*
X-56805Y-56431D01*
X-57367D01*
X-58305Y-56618D01*
X-58867Y-56993D01*
X-59054Y-57556D01*
Y-57930D01*
X-57742Y-55550D02*
X-55118Y-54425D01*
X-57742Y-53301D02*
X-55118Y-54425D01*
X-58305Y-52663D02*
X-58492Y-52289D01*
X-59054Y-51726D01*
X-55118D01*
X-55493Y-49590D02*
X-55306Y-49777D01*
X-55118Y-49590D01*
X-55306Y-49402D01*
X-55493Y-49590D01*
X-59054Y-47415D02*
X-58867Y-47978D01*
X-58305Y-48353D01*
X-57367Y-48540D01*
X-56805D01*
X-55868Y-48353D01*
X-55306Y-47978D01*
X-55118Y-47415D01*
Y-47040D01*
X-55306Y-46478D01*
X-55868Y-46103D01*
X-56805Y-45916D01*
X-57367D01*
X-58305Y-46103D01*
X-58867Y-46478D01*
X-59054Y-47040D01*
Y-47415D01*
Y-41942D02*
X-55118D01*
X-58305Y-38025D02*
X-58492Y-37650D01*
X-59054Y-37088D01*
X-55118D01*
X-58305Y-35138D02*
X-58492Y-34763D01*
X-59054Y-34201D01*
X-55118D01*
X-55493Y-32064D02*
X-55306Y-32252D01*
X-55118Y-32064D01*
X-55306Y-31877D01*
X-55493Y-32064D01*
X-58117Y-30827D02*
X-58305D01*
X-58679Y-30640D01*
X-58867Y-30452D01*
X-59054Y-30077D01*
Y-29328D01*
X-58867Y-28953D01*
X-58679Y-28765D01*
X-58305Y-28578D01*
X-57930D01*
X-57555Y-28765D01*
X-56993Y-29140D01*
X-55118Y-31015D01*
Y-28390D01*
X-59054Y-26385D02*
X-58867Y-26947D01*
X-58305Y-27322D01*
X-57367Y-27510D01*
X-56805D01*
X-55868Y-27322D01*
X-55306Y-26947D01*
X-55118Y-26385D01*
Y-26010D01*
X-55306Y-25448D01*
X-55868Y-25073D01*
X-56805Y-24885D01*
X-57367D01*
X-58305Y-25073D01*
X-58867Y-25448D01*
X-59054Y-26010D01*
Y-26385D01*
X-58305Y-24004D02*
X-58492Y-23630D01*
X-59054Y-23067D01*
X-55118D01*
X-58492Y-18869D02*
X-58867Y-19056D01*
X-59054Y-19618D01*
Y-19993D01*
X-58867Y-20556D01*
X-58305Y-20931D01*
X-57367Y-21118D01*
X-56430D01*
X-55680Y-20931D01*
X-55306Y-20556D01*
X-55118Y-19993D01*
Y-19806D01*
X-55306Y-19244D01*
X-55680Y-18869D01*
X-56243Y-18681D01*
X-56430D01*
X-56993Y-18869D01*
X-57367Y-19244D01*
X-57555Y-19806D01*
Y-19993D01*
X-57367Y-20556D01*
X-56993Y-20931D01*
X-56430Y-21118D01*
X-73490Y-59055D02*
X-70866D01*
X-72741D02*
X-73303Y-58493D01*
X-73490Y-58118D01*
Y-57556D01*
X-73303Y-57181D01*
X-72741Y-56993D01*
X-70866D01*
X-72741D02*
X-73303Y-56431D01*
X-73490Y-56056D01*
Y-55494D01*
X-73303Y-55119D01*
X-72741Y-54931D01*
X-70866D01*
X-74802Y-53694D02*
X-70866D01*
X-74802Y-51070D02*
X-70866D01*
X-72928Y-53694D02*
Y-51070D01*
X-72366Y-49983D02*
Y-47734D01*
X-72741D01*
X-73115Y-47921D01*
X-73303Y-48109D01*
X-73490Y-48484D01*
Y-49046D01*
X-73303Y-49421D01*
X-72928Y-49796D01*
X-72366Y-49983D01*
X-71991D01*
X-71428Y-49796D01*
X-71054Y-49421D01*
X-70866Y-49046D01*
Y-48484D01*
X-71054Y-48109D01*
X-71428Y-47734D01*
X-73490Y-44641D02*
X-70866D01*
X-72928D02*
X-73303Y-45016D01*
X-73490Y-45391D01*
Y-45953D01*
X-73303Y-46328D01*
X-72928Y-46703D01*
X-72366Y-46891D01*
X-71991D01*
X-71428Y-46703D01*
X-71054Y-46328D01*
X-70866Y-45953D01*
Y-45391D01*
X-71054Y-45016D01*
X-71428Y-44641D01*
X-74802Y-43592D02*
X-70866D01*
X-74802Y-42205D02*
X-71616D01*
X-71054Y-42017D01*
X-70866Y-41642D01*
Y-41267D01*
X-73490Y-42767D02*
Y-41455D01*
X-74802Y-40705D02*
X-70866D01*
X-72741D02*
X-73303Y-40143D01*
X-73490Y-39768D01*
Y-39206D01*
X-73303Y-38831D01*
X-72741Y-38643D01*
X-70866D01*
X-70304Y-34520D02*
X-74802Y-31896D01*
Y-28541D02*
X-70866D01*
Y-26291D01*
X-72366Y-25860D02*
Y-23611D01*
X-72741D01*
X-73115Y-23798D01*
X-73303Y-23986D01*
X-73490Y-24361D01*
Y-24923D01*
X-73303Y-25298D01*
X-72928Y-25673D01*
X-72366Y-25860D01*
X-71991D01*
X-71428Y-25673D01*
X-71054Y-25298D01*
X-70866Y-24923D01*
Y-24361D01*
X-71054Y-23986D01*
X-71428Y-23611D01*
X-74802Y-22393D02*
X-74615Y-22205D01*
X-74802Y-22018D01*
X-74990Y-22205D01*
X-74802Y-22393D01*
X-73490Y-22205D02*
X-70866D01*
X-74802Y-20762D02*
X-71616D01*
X-71054Y-20574D01*
X-70866Y-20200D01*
Y-19825D01*
X-73490Y-21324D02*
Y-20012D01*
Y-19262D02*
X-70866Y-18513D01*
X-73490Y-17763D02*
X-70866Y-18513D01*
X-73490Y-17763D02*
X-70866Y-17013D01*
X-73490Y-16263D02*
X-70866Y-17013D01*
X-72366Y-15345D02*
Y-13096D01*
X-72741D01*
X-73115Y-13283D01*
X-73303Y-13471D01*
X-73490Y-13846D01*
Y-14408D01*
X-73303Y-14783D01*
X-72928Y-15157D01*
X-72366Y-15345D01*
X-71991D01*
X-71428Y-15157D01*
X-71054Y-14783D01*
X-70866Y-14408D01*
Y-13846D01*
X-71054Y-13471D01*
X-71428Y-13096D01*
X-73490Y-12252D02*
X-70866D01*
X-72366D02*
X-72928Y-12065D01*
X-73303Y-11690D01*
X-73490Y-11315D01*
Y-10753D01*
X-74802Y-9834D02*
X-71616D01*
X-71054Y-9647D01*
X-70866Y-9272D01*
Y-8897D01*
X-73490Y-10397D02*
Y-9085D01*
D35*
X-4169Y47653D02*
G03*
X4169Y47653I4169J-47653D01*
G01*
X-3747Y44981D02*
G03*
X3747Y44981I3747J98D01*
G01*
X3746D02*
Y47767D01*
X-3746Y44981D02*
Y47767D01*
D36*
X49705Y65256D02*
G03*
X49705Y65256I-492J0D01*
G01*
D37*
X56102Y0D02*
G03*
X56102Y0I-56102J0D01*
G01*
D38*
X45000Y-88740D02*
Y-68740D01*
X-45000D02*
X45000D01*
X-45000Y-88740D02*
X45000D01*
X-45000D02*
Y-68740D01*
D39*
X-16930Y18306D02*
X-17914D01*
X-17422D01*
Y15846D01*
X-17914Y15354D01*
X-18406D01*
X-18898Y15846D01*
X-15946Y17814D02*
X-15454Y18306D01*
X-14470D01*
X-13978Y17814D01*
Y17322D01*
X-14470Y16830D01*
X-14962D01*
X-14470D01*
X-13978Y16338D01*
Y15846D01*
X-14470Y15354D01*
X-15454D01*
X-15946Y15846D01*
X40354Y47735D02*
X39862Y48227D01*
X38878D01*
X38386Y47735D01*
Y45768D01*
X38878Y45276D01*
X39862D01*
X40354Y45768D01*
X41338Y45276D02*
X42322D01*
X41830D01*
Y48227D01*
X41338Y47735D01*
X25099Y58070D02*
X24607Y57578D01*
Y56594D01*
X25099Y56102D01*
X27067D01*
X27559Y56594D01*
Y57578D01*
X27067Y58070D01*
X27559Y61022D02*
Y59054D01*
X25591Y61022D01*
X25099D01*
X24607Y60530D01*
Y59546D01*
X25099Y59054D01*
X55117Y35924D02*
X54625Y36416D01*
X53642D01*
X53150Y35924D01*
Y33957D01*
X53642Y33465D01*
X54625D01*
X55117Y33957D01*
X56101Y35924D02*
X56593Y36416D01*
X57577D01*
X58069Y35924D01*
Y35432D01*
X57577Y34940D01*
X57085D01*
X57577D01*
X58069Y34449D01*
Y33957D01*
X57577Y33465D01*
X56593D01*
X56101Y33957D01*
X67913Y20176D02*
X67421Y20668D01*
X66437D01*
X65945Y20176D01*
Y18209D01*
X66437Y17717D01*
X67421D01*
X67913Y18209D01*
X70373Y17717D02*
Y20668D01*
X68897Y19192D01*
X70865D01*
X63877Y-17322D02*
X64369Y-16830D01*
Y-15846D01*
X63877Y-15354D01*
X61909D01*
X61417Y-15846D01*
Y-16830D01*
X61909Y-17322D01*
X64369Y-20274D02*
Y-18306D01*
X62893D01*
X63385Y-19290D01*
Y-19782D01*
X62893Y-20274D01*
X61909D01*
X61417Y-19782D01*
Y-18798D01*
X61909Y-18306D01*
X-22264Y67560D02*
Y70512D01*
X-23740D01*
X-24232Y70020D01*
Y68052D01*
X-23740Y67560D01*
X-22264D01*
X-25216D02*
Y70512D01*
X-26691D01*
X-27183Y70020D01*
Y69528D01*
X-26691Y69036D01*
X-25216D01*
X-26691D01*
X-27183Y68544D01*
Y68052D01*
X-26691Y67560D01*
X-25216D01*
X-30135Y68052D02*
X-29643Y67560D01*
X-28659D01*
X-28167Y68052D01*
Y70020D01*
X-28659Y70512D01*
X-29643D01*
X-30135Y70020D01*
Y69036D01*
X-29151D01*
X-31119Y70512D02*
X-32103D01*
X-31611D01*
Y67560D01*
X-31119Y68052D01*
X-51202Y-86022D02*
Y-87006D01*
Y-86514D01*
X-48742D01*
X-48250Y-87006D01*
Y-87498D01*
X-48742Y-87990D01*
X-48250Y-85038D02*
Y-84054D01*
Y-84546D01*
X-51202D01*
X-50710Y-85038D01*
X21653Y67912D02*
X20669D01*
X21161D01*
Y65453D01*
X20669Y64961D01*
X20177D01*
X19685Y65453D01*
X24605Y64961D02*
X22637D01*
X24605Y66928D01*
Y67421D01*
X24113Y67912D01*
X23129D01*
X22637Y67421D01*
X65944Y1969D02*
Y2953D01*
Y2461D01*
X63484D01*
X62992Y2953D01*
Y3445D01*
X63484Y3937D01*
X62992Y-491D02*
X65944D01*
X64468Y985D01*
Y-983D01*
X25590Y-30513D02*
X24606D01*
X25098D01*
Y-32973D01*
X24606Y-33465D01*
X24114D01*
X23622Y-32973D01*
X28542Y-30513D02*
X26574D01*
Y-31989D01*
X27558Y-31497D01*
X28050D01*
X28542Y-31989D01*
Y-32973D01*
X28050Y-33465D01*
X27066D01*
X26574Y-32973D01*
X45276Y-54135D02*
Y-57087D01*
X47243D01*
X50195Y-54135D02*
X48227D01*
Y-57087D01*
X50195D01*
X48227Y-55611D02*
X49211D01*
X51179Y-54135D02*
Y-57087D01*
X52655D01*
X53147Y-56595D01*
Y-54627D01*
X52655Y-54135D01*
X51179D01*
X54131Y-57087D02*
X55115D01*
X54623D01*
Y-54135D01*
X54131Y-54627D01*
X51181Y-49213D02*
Y-46261D01*
X52657D01*
X53149Y-46753D01*
Y-47737D01*
X52657Y-48229D01*
X51181D01*
X52165D02*
X53149Y-49213D01*
X54133D02*
X55117D01*
X54625D01*
Y-46261D01*
X54133Y-46753D01*
X69882Y43306D02*
Y40846D01*
X70374Y40354D01*
X71358D01*
X71850Y40846D01*
Y43306D01*
X72834Y40354D02*
X73818D01*
X73326D01*
Y43306D01*
X72834Y42814D01*
X14968Y-11048D02*
X13984D01*
X14476D01*
Y-13508D01*
X13984Y-14000D01*
X13492D01*
X13000Y-13508D01*
X17920Y-11048D02*
X16936Y-11540D01*
X15952Y-12524D01*
Y-13508D01*
X16444Y-14000D01*
X17428D01*
X17920Y-13508D01*
Y-13016D01*
X17428Y-12524D01*
X15952D01*
M02*
