M48
;Layer_Color=9474304
;FILE_FORMAT=2:5
INCH,LZ
;TYPE=PLATED
T1F00S00C0.01181
T3F00S00C0.02559
T5F00S00C0.03600
T6F00S00C0.03937
T7F00S00C0.04724
T9F00S00C0.13386
%
T01
X-0004331Y0061516
X-0009252Y0067326
T03
X-0025Y-0025
Y-002
X-002
Y-0025
X-0015
Y-002
X-001
Y-0025
X-0005
X0
X0005
X001
X0015
Y-002
X001
X0005
X0
X-0005
X-0006516Y0024705
X-0001516
X0003484
Y0029705
X-0001516
X-0006516
X-0011516
Y0024705
X-0016516
Y0029705
X-0014685Y007624
X-0009685
Y008124
X-0014685
X-0019685
Y007624
X-0024685
Y008124
X-0029685
Y007624
T05
X-004Y-008374
Y-007374
X-003
Y-008374
X-002
Y-007374
X-001
X0
X001
X002
Y-008374
X003
Y-007374
X001Y-008374
X0
X-001
X004
Y-007374
T06
X0025Y-0025
Y-0015
X007185Y-0005
Y0005
T07
X-0035433Y-0025591
X0035433Y0025591
X0008484Y0022205
Y0032205
X-0021516Y0027205
T09
X-0066929Y-007874
X0066929
Y007874
X-0066929
M30
