G04 Layer_Color=16711935*
%FSLAX25Y25*%
%MOIN*%
G70*
G01*
G75*
%ADD59R,0.23922X0.19985*%
%ADD76C,0.23922*%
%ADD77O,0.08961X0.08174*%
%ADD78C,0.00300*%
%ADD79C,0.05024*%
%ADD80C,0.04200*%
%ADD81C,0.04237*%
%ADD82C,0.06599*%
%ADD83C,0.31796*%
G04:AMPARAMS|DCode=84|XSize=93.16mil|YSize=203mil|CornerRadius=0mil|HoleSize=0mil|Usage=FLASHONLY|Rotation=145.000|XOffset=0mil|YOffset=0mil|HoleType=Round|Shape=Rectangle|*
%AMROTATEDRECTD84*
4,1,4,0.09637,0.05643,-0.02006,-0.10986,-0.09637,-0.05643,0.02006,0.10986,0.09637,0.05643,0.0*
%
%ADD84ROTATEDRECTD84*%

G36*
X458833Y488402D02*
X461879Y488065D01*
X463378Y487750D01*
X463378Y487750D01*
X483670Y473541D01*
X484479Y472240D01*
X485837Y469494D01*
X486922Y466628D01*
X487725Y463671D01*
X488237Y460650D01*
X488454Y457593D01*
X488374Y454530D01*
X487996Y451489D01*
X487326Y448499D01*
X486370Y445588D01*
X485135Y442784D01*
X483635Y440112D01*
X481882Y437599D01*
X479895Y435266D01*
X477690Y433138D01*
X475290Y431234D01*
X472716Y429571D01*
X469993Y428165D01*
X467147Y427030D01*
X464204Y426177D01*
X461193Y425612D01*
X458140Y425343D01*
X455076Y425370D01*
X452029Y425694D01*
X450528Y426003D01*
X430042Y440348D01*
X429238Y441653D01*
X427891Y444405D01*
X426817Y447275D01*
X426027Y450235D01*
X425527Y453259D01*
X425323Y456316D01*
X425416Y459379D01*
X425806Y462418D01*
X426488Y465405D01*
X427457Y468312D01*
X428702Y471112D01*
X430214Y473777D01*
X431977Y476284D01*
X433974Y478607D01*
X436187Y480727D01*
X438595Y482621D01*
X441176Y484273D01*
X443904Y485668D01*
X446755Y486791D01*
X449702Y487633D01*
X452716Y488185D01*
X455769Y488442D01*
X458833Y488402D01*
D02*
G37*
G36*
X356865D02*
X359910Y488065D01*
X361409Y487750D01*
X361409Y487750D01*
X381701Y473541D01*
X382510Y472240D01*
X383868Y469494D01*
X384954Y466628D01*
X385756Y463671D01*
X386269Y460650D01*
X386485Y457593D01*
X386405Y454530D01*
X386028Y451489D01*
X385358Y448499D01*
X384401Y445588D01*
X383167Y442784D01*
X381666Y440112D01*
X379914Y437599D01*
X377926Y435266D01*
X375722Y433138D01*
X373321Y431234D01*
X370748Y429571D01*
X368025Y428165D01*
X365179Y427030D01*
X362236Y426177D01*
X359224Y425612D01*
X356172Y425343D01*
X353108Y425370D01*
X350061Y425694D01*
X348560Y426003D01*
X328073Y440348D01*
X327269Y441653D01*
X325922Y444405D01*
X324849Y447275D01*
X324058Y450235D01*
X323559Y453259D01*
X323354Y456316D01*
X323447Y459379D01*
X323837Y462418D01*
X324519Y465405D01*
X325488Y468312D01*
X326734Y471112D01*
X328245Y473777D01*
X330008Y476284D01*
X332005Y478607D01*
X334219Y480727D01*
X336627Y482621D01*
X339207Y484273D01*
X341936Y485668D01*
X344787Y486791D01*
X347733Y487633D01*
X350747Y488185D01*
X353801Y488442D01*
X356865Y488402D01*
D02*
G37*
G36*
X254896D02*
X257942Y488065D01*
X259441Y487750D01*
X259441Y487750D01*
X279733Y473541D01*
X280542Y472240D01*
X281900Y469494D01*
X282985Y466628D01*
X283788Y463671D01*
X284300Y460650D01*
X284517Y457593D01*
X284436Y454530D01*
X284060Y451489D01*
X283389Y448499D01*
X282433Y445588D01*
X281198Y442784D01*
X279698Y440112D01*
X277945Y437599D01*
X275958Y435266D01*
X273753Y433138D01*
X271353Y431234D01*
X268779Y429571D01*
X266056Y428165D01*
X263210Y427030D01*
X260267Y426177D01*
X257256Y425612D01*
X254203Y425343D01*
X251139Y425370D01*
X248092Y425694D01*
X246591Y426003D01*
X226104Y440348D01*
X225301Y441653D01*
X223954Y444405D01*
X222880Y447275D01*
X222090Y450235D01*
X221590Y453259D01*
X221386Y456316D01*
X221479Y459379D01*
X221868Y462418D01*
X222551Y465405D01*
X223519Y468312D01*
X224765Y471112D01*
X226277Y473777D01*
X228040Y476284D01*
X230037Y478607D01*
X232250Y480727D01*
X234658Y482621D01*
X237239Y484273D01*
X239967Y485668D01*
X242818Y486791D01*
X245765Y487633D01*
X248779Y488185D01*
X251832Y488442D01*
X254896Y488402D01*
D02*
G37*
G36*
X152927D02*
X155973Y488065D01*
X157473Y487750D01*
X157473Y487750D01*
X177764Y473541D01*
X178573Y472240D01*
X179931Y469494D01*
X181017Y466628D01*
X181819Y463671D01*
X182332Y460650D01*
X182548Y457593D01*
X182468Y454530D01*
X182091Y451489D01*
X181421Y448499D01*
X180464Y445588D01*
X179230Y442784D01*
X177729Y440112D01*
X175977Y437599D01*
X173989Y435266D01*
X171785Y433138D01*
X169384Y431234D01*
X166811Y429571D01*
X164088Y428165D01*
X161242Y427030D01*
X158299Y426177D01*
X155287Y425612D01*
X152235Y425343D01*
X149171Y425370D01*
X146124Y425694D01*
X144623Y426003D01*
X124136Y440348D01*
X123332Y441653D01*
X121985Y444405D01*
X120912Y447275D01*
X120121Y450235D01*
X119622Y453259D01*
X119417Y456316D01*
X119510Y459379D01*
X119900Y462418D01*
X120582Y465405D01*
X121551Y468312D01*
X122797Y471112D01*
X124308Y473777D01*
X126071Y476284D01*
X128068Y478607D01*
X130282Y480727D01*
X132690Y482621D01*
X135270Y484273D01*
X137999Y485668D01*
X140850Y486791D01*
X143796Y487633D01*
X146810Y488185D01*
X149864Y488442D01*
X152927Y488402D01*
D02*
G37*
G36*
X50959D02*
X54005Y488065D01*
X55504Y487750D01*
X55504Y487750D01*
X75796Y473541D01*
X76605Y472240D01*
X77963Y469494D01*
X79048Y466628D01*
X79851Y463671D01*
X80363Y460650D01*
X80580Y457593D01*
X80500Y454530D01*
X80123Y451489D01*
X79453Y448499D01*
X78496Y445588D01*
X77261Y442784D01*
X75761Y440112D01*
X74009Y437599D01*
X72021Y435266D01*
X69816Y433138D01*
X67416Y431234D01*
X64842Y429571D01*
X62119Y428165D01*
X59273Y427030D01*
X56330Y426177D01*
X53318Y425612D01*
X50266Y425343D01*
X47202Y425370D01*
X44155Y425694D01*
X42654Y426003D01*
X22167Y440348D01*
X21364Y441653D01*
X20017Y444405D01*
X18943Y447275D01*
X18153Y450235D01*
X17653Y453259D01*
X17449Y456316D01*
X17542Y459379D01*
X17932Y462418D01*
X18614Y465405D01*
X19582Y468312D01*
X20828Y471112D01*
X22340Y473777D01*
X24103Y476284D01*
X26100Y478607D01*
X28313Y480727D01*
X30721Y482621D01*
X33302Y484273D01*
X36031Y485668D01*
X38881Y486791D01*
X41828Y487633D01*
X44842Y488185D01*
X47895Y488442D01*
X50959Y488402D01*
D02*
G37*
G36*
X458833Y386433D02*
X461879Y386097D01*
X463378Y385781D01*
X463378Y385781D01*
X483670Y371573D01*
X484479Y370272D01*
X485837Y367525D01*
X486922Y364660D01*
X487725Y361702D01*
X488237Y358681D01*
X488454Y355625D01*
X488374Y352562D01*
X487996Y349521D01*
X487326Y346531D01*
X486370Y343620D01*
X485135Y340815D01*
X483635Y338144D01*
X481882Y335630D01*
X479895Y333298D01*
X477690Y331170D01*
X475290Y329265D01*
X472716Y327602D01*
X469993Y326197D01*
X467147Y325062D01*
X464204Y324208D01*
X461193Y323644D01*
X458140Y323374D01*
X455076Y323401D01*
X452029Y323726D01*
X450528Y324035D01*
X430042Y338380D01*
X429238Y339684D01*
X427891Y342437D01*
X426817Y345306D01*
X426027Y348267D01*
X425527Y351290D01*
X425323Y354347D01*
X425416Y357410D01*
X425806Y360450D01*
X426488Y363437D01*
X427457Y366344D01*
X428702Y369143D01*
X430214Y371809D01*
X431977Y374315D01*
X433974Y376639D01*
X436187Y378758D01*
X438595Y380653D01*
X441176Y382305D01*
X443904Y383699D01*
X446755Y384823D01*
X449702Y385664D01*
X452716Y386216D01*
X455769Y386473D01*
X458833Y386433D01*
D02*
G37*
G36*
X356865D02*
X359910Y386097D01*
X361409Y385781D01*
X361409Y385781D01*
X381701Y371573D01*
X382510Y370272D01*
X383868Y367525D01*
X384954Y364660D01*
X385756Y361702D01*
X386269Y358681D01*
X386485Y355625D01*
X386405Y352562D01*
X386028Y349521D01*
X385358Y346531D01*
X384401Y343620D01*
X383167Y340815D01*
X381666Y338144D01*
X379914Y335630D01*
X377926Y333298D01*
X375722Y331170D01*
X373321Y329265D01*
X370748Y327602D01*
X368025Y326197D01*
X365179Y325062D01*
X362236Y324208D01*
X359224Y323644D01*
X356172Y323374D01*
X353108Y323401D01*
X350061Y323726D01*
X348560Y324035D01*
X328073Y338380D01*
X327269Y339684D01*
X325922Y342437D01*
X324849Y345306D01*
X324058Y348267D01*
X323559Y351290D01*
X323354Y354347D01*
X323447Y357410D01*
X323837Y360450D01*
X324519Y363437D01*
X325488Y366344D01*
X326734Y369143D01*
X328245Y371809D01*
X330008Y374315D01*
X332005Y376639D01*
X334219Y378758D01*
X336627Y380653D01*
X339207Y382305D01*
X341936Y383699D01*
X344787Y384823D01*
X347733Y385664D01*
X350747Y386216D01*
X353801Y386473D01*
X356865Y386433D01*
D02*
G37*
G36*
X254896D02*
X257942Y386097D01*
X259441Y385781D01*
X259441Y385781D01*
X279733Y371573D01*
X280542Y370272D01*
X281900Y367525D01*
X282985Y364660D01*
X283788Y361702D01*
X284300Y358681D01*
X284517Y355625D01*
X284436Y352562D01*
X284060Y349521D01*
X283389Y346531D01*
X282433Y343620D01*
X281198Y340815D01*
X279698Y338144D01*
X277945Y335630D01*
X275958Y333298D01*
X273753Y331170D01*
X271353Y329265D01*
X268779Y327602D01*
X266056Y326197D01*
X263210Y325062D01*
X260267Y324208D01*
X257256Y323644D01*
X254203Y323374D01*
X251139Y323401D01*
X248092Y323726D01*
X246591Y324035D01*
X226104Y338380D01*
X225301Y339684D01*
X223954Y342437D01*
X222880Y345306D01*
X222090Y348267D01*
X221590Y351290D01*
X221386Y354347D01*
X221479Y357410D01*
X221868Y360450D01*
X222551Y363437D01*
X223519Y366344D01*
X224765Y369143D01*
X226277Y371809D01*
X228040Y374315D01*
X230037Y376639D01*
X232250Y378758D01*
X234658Y380653D01*
X237239Y382305D01*
X239967Y383699D01*
X242818Y384823D01*
X245765Y385664D01*
X248779Y386216D01*
X251832Y386473D01*
X254896Y386433D01*
D02*
G37*
G36*
X152927D02*
X155973Y386097D01*
X157473Y385781D01*
X157473Y385781D01*
X177764Y371573D01*
X178573Y370272D01*
X179931Y367525D01*
X181017Y364660D01*
X181819Y361702D01*
X182332Y358681D01*
X182548Y355625D01*
X182468Y352562D01*
X182091Y349521D01*
X181421Y346531D01*
X180464Y343620D01*
X179230Y340815D01*
X177729Y338144D01*
X175977Y335630D01*
X173989Y333298D01*
X171785Y331170D01*
X169384Y329265D01*
X166811Y327602D01*
X164088Y326197D01*
X161242Y325062D01*
X158299Y324208D01*
X155287Y323644D01*
X152235Y323374D01*
X149171Y323401D01*
X146124Y323726D01*
X144623Y324035D01*
X124136Y338380D01*
X123332Y339684D01*
X121985Y342437D01*
X120912Y345306D01*
X120121Y348267D01*
X119622Y351290D01*
X119417Y354347D01*
X119510Y357410D01*
X119900Y360450D01*
X120582Y363437D01*
X121551Y366344D01*
X122797Y369143D01*
X124308Y371809D01*
X126071Y374315D01*
X128068Y376639D01*
X130282Y378758D01*
X132690Y380653D01*
X135270Y382305D01*
X137999Y383699D01*
X140850Y384823D01*
X143796Y385664D01*
X146810Y386216D01*
X149864Y386473D01*
X152927Y386433D01*
D02*
G37*
G36*
X50959D02*
X54005Y386097D01*
X55504Y385781D01*
X55504Y385781D01*
X75796Y371573D01*
X76605Y370272D01*
X77963Y367525D01*
X79048Y364660D01*
X79851Y361702D01*
X80363Y358681D01*
X80580Y355625D01*
X80500Y352562D01*
X80123Y349521D01*
X79453Y346531D01*
X78496Y343620D01*
X77261Y340815D01*
X75761Y338144D01*
X74009Y335630D01*
X72021Y333298D01*
X69816Y331170D01*
X67416Y329265D01*
X64842Y327602D01*
X62119Y326197D01*
X59273Y325062D01*
X56330Y324208D01*
X53318Y323644D01*
X50266Y323374D01*
X47202Y323401D01*
X44155Y323726D01*
X42654Y324035D01*
X22167Y338380D01*
X21364Y339684D01*
X20017Y342437D01*
X18943Y345306D01*
X18153Y348267D01*
X17653Y351290D01*
X17449Y354347D01*
X17542Y357410D01*
X17932Y360450D01*
X18614Y363437D01*
X19582Y366344D01*
X20828Y369143D01*
X22340Y371809D01*
X24103Y374315D01*
X26100Y376639D01*
X28313Y378758D01*
X30721Y380653D01*
X33302Y382305D01*
X36031Y383699D01*
X38881Y384823D01*
X41828Y385664D01*
X44842Y386216D01*
X47895Y386473D01*
X50959Y386433D01*
D02*
G37*
G36*
X458833Y284465D02*
X461879Y284128D01*
X463378Y283813D01*
X463378Y283813D01*
X483670Y269604D01*
X484479Y268303D01*
X485837Y265557D01*
X486922Y262691D01*
X487725Y259734D01*
X488237Y256713D01*
X488454Y253656D01*
X488374Y250593D01*
X487996Y247552D01*
X487326Y244562D01*
X486370Y241651D01*
X485135Y238847D01*
X483635Y236175D01*
X481882Y233662D01*
X479895Y231329D01*
X477690Y229201D01*
X475290Y227297D01*
X472716Y225634D01*
X469993Y224228D01*
X467147Y223093D01*
X464204Y222240D01*
X461193Y221675D01*
X458140Y221406D01*
X455076Y221433D01*
X452029Y221757D01*
X450528Y222066D01*
X430042Y236411D01*
X429238Y237716D01*
X427891Y240468D01*
X426817Y243338D01*
X426027Y246298D01*
X425527Y249322D01*
X425323Y252379D01*
X425416Y255442D01*
X425806Y258481D01*
X426488Y261468D01*
X427457Y264375D01*
X428702Y267175D01*
X430214Y269840D01*
X431977Y272347D01*
X433974Y274670D01*
X436187Y276790D01*
X438595Y278684D01*
X441176Y280336D01*
X443904Y281731D01*
X446755Y282854D01*
X449702Y283696D01*
X452716Y284248D01*
X455769Y284505D01*
X458833Y284465D01*
D02*
G37*
G36*
X356865D02*
X359910Y284128D01*
X361409Y283813D01*
X361409Y283813D01*
X381701Y269604D01*
X382510Y268303D01*
X383868Y265557D01*
X384954Y262691D01*
X385756Y259734D01*
X386269Y256713D01*
X386485Y253656D01*
X386405Y250593D01*
X386028Y247552D01*
X385358Y244562D01*
X384401Y241651D01*
X383167Y238847D01*
X381666Y236175D01*
X379914Y233662D01*
X377926Y231329D01*
X375722Y229201D01*
X373321Y227297D01*
X370748Y225634D01*
X368025Y224228D01*
X365179Y223093D01*
X362236Y222240D01*
X359224Y221675D01*
X356172Y221406D01*
X353108Y221433D01*
X350061Y221757D01*
X348560Y222066D01*
X328073Y236411D01*
X327269Y237716D01*
X325922Y240468D01*
X324849Y243338D01*
X324058Y246298D01*
X323559Y249322D01*
X323354Y252379D01*
X323447Y255442D01*
X323837Y258481D01*
X324519Y261468D01*
X325488Y264375D01*
X326734Y267175D01*
X328245Y269840D01*
X330008Y272347D01*
X332005Y274670D01*
X334219Y276790D01*
X336627Y278684D01*
X339207Y280336D01*
X341936Y281731D01*
X344787Y282854D01*
X347733Y283696D01*
X350747Y284248D01*
X353801Y284505D01*
X356865Y284465D01*
D02*
G37*
G36*
X254896D02*
X257942Y284128D01*
X259441Y283813D01*
X259441Y283813D01*
X279733Y269604D01*
X280542Y268303D01*
X281900Y265557D01*
X282985Y262691D01*
X283788Y259734D01*
X284300Y256713D01*
X284517Y253656D01*
X284436Y250593D01*
X284060Y247552D01*
X283389Y244562D01*
X282433Y241651D01*
X281198Y238847D01*
X279698Y236175D01*
X277945Y233662D01*
X275958Y231329D01*
X273753Y229201D01*
X271353Y227297D01*
X268779Y225634D01*
X266056Y224228D01*
X263210Y223093D01*
X260267Y222240D01*
X257256Y221675D01*
X254203Y221406D01*
X251139Y221433D01*
X248092Y221757D01*
X246591Y222066D01*
X226104Y236411D01*
X225301Y237716D01*
X223954Y240468D01*
X222880Y243338D01*
X222090Y246298D01*
X221590Y249322D01*
X221386Y252379D01*
X221479Y255442D01*
X221868Y258481D01*
X222551Y261468D01*
X223519Y264375D01*
X224765Y267175D01*
X226277Y269840D01*
X228040Y272347D01*
X230037Y274670D01*
X232250Y276790D01*
X234658Y278684D01*
X237239Y280336D01*
X239967Y281731D01*
X242818Y282854D01*
X245765Y283696D01*
X248779Y284248D01*
X251832Y284505D01*
X254896Y284465D01*
D02*
G37*
G36*
X152927D02*
X155973Y284128D01*
X157473Y283813D01*
X157473Y283813D01*
X177764Y269604D01*
X178573Y268303D01*
X179931Y265557D01*
X181017Y262691D01*
X181819Y259734D01*
X182332Y256713D01*
X182548Y253656D01*
X182468Y250593D01*
X182091Y247552D01*
X181421Y244562D01*
X180464Y241651D01*
X179230Y238847D01*
X177729Y236175D01*
X175977Y233662D01*
X173989Y231329D01*
X171785Y229201D01*
X169384Y227297D01*
X166811Y225634D01*
X164088Y224228D01*
X161242Y223093D01*
X158299Y222240D01*
X155287Y221675D01*
X152235Y221406D01*
X149171Y221433D01*
X146124Y221757D01*
X144623Y222066D01*
X124136Y236411D01*
X123332Y237716D01*
X121985Y240468D01*
X120912Y243338D01*
X120121Y246298D01*
X119622Y249322D01*
X119417Y252379D01*
X119510Y255442D01*
X119900Y258481D01*
X120582Y261468D01*
X121551Y264375D01*
X122797Y267175D01*
X124308Y269840D01*
X126071Y272347D01*
X128068Y274670D01*
X130282Y276790D01*
X132690Y278684D01*
X135270Y280336D01*
X137999Y281731D01*
X140850Y282854D01*
X143796Y283696D01*
X146810Y284248D01*
X149864Y284505D01*
X152927Y284465D01*
D02*
G37*
G36*
X50959D02*
X54005Y284128D01*
X55504Y283813D01*
X55504Y283813D01*
X75796Y269604D01*
X76605Y268303D01*
X77963Y265557D01*
X79048Y262691D01*
X79851Y259734D01*
X80363Y256713D01*
X80580Y253656D01*
X80500Y250593D01*
X80123Y247552D01*
X79453Y244562D01*
X78496Y241651D01*
X77261Y238847D01*
X75761Y236175D01*
X74009Y233662D01*
X72021Y231329D01*
X69816Y229201D01*
X67416Y227297D01*
X64842Y225634D01*
X62119Y224228D01*
X59273Y223093D01*
X56330Y222240D01*
X53318Y221675D01*
X50266Y221406D01*
X47202Y221433D01*
X44155Y221757D01*
X42654Y222066D01*
X22167Y236411D01*
X21364Y237716D01*
X20017Y240468D01*
X18943Y243338D01*
X18153Y246298D01*
X17653Y249322D01*
X17449Y252379D01*
X17542Y255442D01*
X17932Y258481D01*
X18614Y261468D01*
X19582Y264375D01*
X20828Y267175D01*
X22340Y269840D01*
X24103Y272347D01*
X26100Y274670D01*
X28313Y276790D01*
X30721Y278684D01*
X33302Y280336D01*
X36031Y281731D01*
X38881Y282854D01*
X41828Y283696D01*
X44842Y284248D01*
X47895Y284505D01*
X50959Y284465D01*
D02*
G37*
G36*
X458833Y182496D02*
X461879Y182160D01*
X463378Y181844D01*
X463378Y181844D01*
X483670Y167636D01*
X484479Y166335D01*
X485837Y163588D01*
X486922Y160723D01*
X487725Y157765D01*
X488237Y154744D01*
X488454Y151688D01*
X488374Y148625D01*
X487996Y145584D01*
X487326Y142594D01*
X486370Y139683D01*
X485135Y136878D01*
X483635Y134207D01*
X481882Y131693D01*
X479895Y129361D01*
X477690Y127233D01*
X475290Y125328D01*
X472716Y123665D01*
X469993Y122260D01*
X467147Y121125D01*
X464204Y120271D01*
X461193Y119707D01*
X458140Y119437D01*
X455076Y119464D01*
X452029Y119789D01*
X450528Y120098D01*
X430042Y134443D01*
X429238Y135747D01*
X427891Y138499D01*
X426817Y141369D01*
X426027Y144330D01*
X425527Y147353D01*
X425323Y150410D01*
X425416Y153473D01*
X425806Y156512D01*
X426488Y159500D01*
X427457Y162407D01*
X428702Y165206D01*
X430214Y167872D01*
X431977Y170378D01*
X433974Y172702D01*
X436187Y174821D01*
X438595Y176716D01*
X441176Y178368D01*
X443904Y179762D01*
X446755Y180886D01*
X449702Y181727D01*
X452716Y182279D01*
X455769Y182536D01*
X458833Y182496D01*
D02*
G37*
G36*
X356865D02*
X359910Y182160D01*
X361409Y181844D01*
X361409Y181844D01*
X381701Y167636D01*
X382510Y166335D01*
X383868Y163588D01*
X384954Y160723D01*
X385756Y157765D01*
X386269Y154744D01*
X386485Y151688D01*
X386405Y148625D01*
X386028Y145584D01*
X385358Y142594D01*
X384401Y139683D01*
X383167Y136878D01*
X381666Y134207D01*
X379914Y131693D01*
X377926Y129361D01*
X375722Y127233D01*
X373321Y125328D01*
X370748Y123665D01*
X368025Y122260D01*
X365179Y121125D01*
X362236Y120271D01*
X359224Y119707D01*
X356172Y119437D01*
X353108Y119464D01*
X350061Y119789D01*
X348560Y120098D01*
X328073Y134443D01*
X327269Y135747D01*
X325922Y138499D01*
X324849Y141369D01*
X324058Y144330D01*
X323559Y147353D01*
X323354Y150410D01*
X323447Y153473D01*
X323837Y156512D01*
X324519Y159500D01*
X325488Y162407D01*
X326734Y165206D01*
X328245Y167872D01*
X330008Y170378D01*
X332005Y172702D01*
X334219Y174821D01*
X336627Y176716D01*
X339207Y178368D01*
X341936Y179762D01*
X344787Y180886D01*
X347733Y181727D01*
X350747Y182279D01*
X353801Y182536D01*
X356865Y182496D01*
D02*
G37*
G36*
X254896D02*
X257942Y182160D01*
X259441Y181844D01*
X259441Y181844D01*
X279733Y167636D01*
X280542Y166335D01*
X281900Y163588D01*
X282985Y160723D01*
X283788Y157765D01*
X284300Y154744D01*
X284517Y151688D01*
X284436Y148625D01*
X284060Y145584D01*
X283389Y142594D01*
X282433Y139683D01*
X281198Y136878D01*
X279698Y134207D01*
X277945Y131693D01*
X275958Y129361D01*
X273753Y127233D01*
X271353Y125328D01*
X268779Y123665D01*
X266056Y122260D01*
X263210Y121125D01*
X260267Y120271D01*
X257256Y119707D01*
X254203Y119437D01*
X251139Y119464D01*
X248092Y119789D01*
X246591Y120098D01*
X226104Y134443D01*
X225301Y135747D01*
X223954Y138499D01*
X222880Y141369D01*
X222090Y144330D01*
X221590Y147353D01*
X221386Y150410D01*
X221479Y153473D01*
X221868Y156512D01*
X222551Y159500D01*
X223519Y162407D01*
X224765Y165206D01*
X226277Y167872D01*
X228040Y170378D01*
X230037Y172702D01*
X232250Y174821D01*
X234658Y176716D01*
X237239Y178368D01*
X239967Y179762D01*
X242818Y180886D01*
X245765Y181727D01*
X248779Y182279D01*
X251832Y182536D01*
X254896Y182496D01*
D02*
G37*
G36*
X152927D02*
X155973Y182160D01*
X157473Y181844D01*
X157473Y181844D01*
X177764Y167636D01*
X178573Y166335D01*
X179931Y163588D01*
X181017Y160723D01*
X181819Y157765D01*
X182332Y154744D01*
X182548Y151688D01*
X182468Y148625D01*
X182091Y145584D01*
X181421Y142594D01*
X180464Y139683D01*
X179230Y136878D01*
X177729Y134207D01*
X175977Y131693D01*
X173989Y129361D01*
X171785Y127233D01*
X169384Y125328D01*
X166811Y123665D01*
X164088Y122260D01*
X161242Y121125D01*
X158299Y120271D01*
X155287Y119707D01*
X152235Y119437D01*
X149171Y119464D01*
X146124Y119789D01*
X144623Y120098D01*
X124136Y134443D01*
X123332Y135747D01*
X121985Y138499D01*
X120912Y141369D01*
X120121Y144330D01*
X119622Y147353D01*
X119417Y150410D01*
X119510Y153473D01*
X119900Y156512D01*
X120582Y159500D01*
X121551Y162407D01*
X122797Y165206D01*
X124308Y167872D01*
X126071Y170378D01*
X128068Y172702D01*
X130282Y174821D01*
X132690Y176716D01*
X135270Y178368D01*
X137999Y179762D01*
X140850Y180886D01*
X143796Y181727D01*
X146810Y182279D01*
X149864Y182536D01*
X152927Y182496D01*
D02*
G37*
G36*
X50959D02*
X54005Y182160D01*
X55504Y181844D01*
X55504Y181844D01*
X75796Y167636D01*
X76605Y166335D01*
X77963Y163588D01*
X79048Y160723D01*
X79851Y157765D01*
X80363Y154744D01*
X80580Y151688D01*
X80500Y148625D01*
X80123Y145584D01*
X79453Y142594D01*
X78496Y139683D01*
X77261Y136878D01*
X75761Y134207D01*
X74009Y131693D01*
X72021Y129361D01*
X69816Y127233D01*
X67416Y125328D01*
X64842Y123665D01*
X62119Y122260D01*
X59273Y121125D01*
X56330Y120271D01*
X53318Y119707D01*
X50266Y119437D01*
X47202Y119464D01*
X44155Y119789D01*
X42654Y120098D01*
X22167Y134443D01*
X21364Y135747D01*
X20017Y138499D01*
X18943Y141369D01*
X18153Y144330D01*
X17653Y147353D01*
X17449Y150410D01*
X17542Y153473D01*
X17932Y156512D01*
X18614Y159500D01*
X19582Y162407D01*
X20828Y165206D01*
X22340Y167872D01*
X24103Y170378D01*
X26100Y172702D01*
X28313Y174821D01*
X30721Y176716D01*
X33302Y178368D01*
X36031Y179762D01*
X38881Y180886D01*
X41828Y181727D01*
X44842Y182279D01*
X47895Y182536D01*
X50959Y182496D01*
D02*
G37*
G36*
X458833Y80528D02*
X461879Y80191D01*
X463378Y79876D01*
X463378Y79876D01*
X483670Y65667D01*
X484479Y64366D01*
X485837Y61620D01*
X486922Y58754D01*
X487725Y55797D01*
X488237Y52776D01*
X488454Y49719D01*
X488374Y46656D01*
X487996Y43615D01*
X487326Y40625D01*
X486370Y37714D01*
X485135Y34910D01*
X483635Y32238D01*
X481882Y29724D01*
X479895Y27393D01*
X477690Y25264D01*
X475290Y23360D01*
X472716Y21697D01*
X469993Y20291D01*
X467147Y19156D01*
X464204Y18303D01*
X461193Y17738D01*
X458140Y17469D01*
X455076Y17496D01*
X452029Y17820D01*
X450528Y18129D01*
X430042Y32474D01*
X429238Y33779D01*
X427891Y36531D01*
X426817Y39401D01*
X426027Y42361D01*
X425527Y45385D01*
X425323Y48442D01*
X425416Y51505D01*
X425806Y54544D01*
X426488Y57531D01*
X427457Y60438D01*
X428702Y63238D01*
X430214Y65903D01*
X431977Y68410D01*
X433974Y70733D01*
X436187Y72853D01*
X438595Y74747D01*
X441176Y76399D01*
X443904Y77794D01*
X446755Y78917D01*
X449702Y79759D01*
X452716Y80311D01*
X455769Y80568D01*
X458833Y80528D01*
D02*
G37*
G36*
X356865D02*
X359910Y80191D01*
X361409Y79876D01*
X361409Y79876D01*
X381701Y65667D01*
X382510Y64366D01*
X383868Y61620D01*
X384954Y58754D01*
X385756Y55797D01*
X386269Y52776D01*
X386485Y49719D01*
X386405Y46656D01*
X386028Y43615D01*
X385358Y40625D01*
X384401Y37714D01*
X383167Y34910D01*
X381666Y32238D01*
X379914Y29724D01*
X377926Y27393D01*
X375722Y25264D01*
X373321Y23360D01*
X370748Y21697D01*
X368025Y20291D01*
X365179Y19156D01*
X362236Y18303D01*
X359224Y17738D01*
X356172Y17469D01*
X353108Y17496D01*
X350061Y17820D01*
X348560Y18129D01*
X328073Y32474D01*
X327269Y33779D01*
X325922Y36531D01*
X324849Y39401D01*
X324058Y42361D01*
X323559Y45385D01*
X323354Y48442D01*
X323447Y51505D01*
X323837Y54544D01*
X324519Y57531D01*
X325488Y60438D01*
X326734Y63238D01*
X328245Y65903D01*
X330008Y68410D01*
X332005Y70733D01*
X334219Y72853D01*
X336627Y74747D01*
X339207Y76399D01*
X341936Y77794D01*
X344787Y78917D01*
X347733Y79759D01*
X350747Y80311D01*
X353801Y80568D01*
X356865Y80528D01*
D02*
G37*
G36*
X254896D02*
X257942Y80191D01*
X259441Y79876D01*
X259441Y79876D01*
X279733Y65667D01*
X280542Y64366D01*
X281900Y61620D01*
X282985Y58754D01*
X283788Y55797D01*
X284300Y52776D01*
X284517Y49719D01*
X284436Y46656D01*
X284060Y43615D01*
X283389Y40625D01*
X282433Y37714D01*
X281198Y34910D01*
X279698Y32238D01*
X277945Y29724D01*
X275958Y27393D01*
X273753Y25264D01*
X271353Y23360D01*
X268779Y21697D01*
X266056Y20291D01*
X263210Y19156D01*
X260267Y18303D01*
X257256Y17738D01*
X254203Y17469D01*
X251139Y17496D01*
X248092Y17820D01*
X246591Y18129D01*
X226104Y32474D01*
X225301Y33779D01*
X223954Y36531D01*
X222880Y39401D01*
X222090Y42361D01*
X221590Y45385D01*
X221386Y48442D01*
X221479Y51505D01*
X221868Y54544D01*
X222551Y57531D01*
X223519Y60438D01*
X224765Y63238D01*
X226277Y65903D01*
X228040Y68410D01*
X230037Y70733D01*
X232250Y72853D01*
X234658Y74747D01*
X237239Y76399D01*
X239967Y77794D01*
X242818Y78917D01*
X245765Y79759D01*
X248779Y80311D01*
X251832Y80568D01*
X254896Y80528D01*
D02*
G37*
G36*
X152927D02*
X155973Y80191D01*
X157473Y79876D01*
X157473Y79876D01*
X177764Y65667D01*
X178573Y64366D01*
X179931Y61620D01*
X181017Y58754D01*
X181819Y55797D01*
X182332Y52776D01*
X182548Y49719D01*
X182468Y46656D01*
X182091Y43615D01*
X181421Y40625D01*
X180464Y37714D01*
X179230Y34910D01*
X177729Y32238D01*
X175977Y29724D01*
X173989Y27393D01*
X171785Y25264D01*
X169384Y23360D01*
X166811Y21697D01*
X164088Y20291D01*
X161242Y19156D01*
X158299Y18303D01*
X155287Y17738D01*
X152235Y17469D01*
X149171Y17496D01*
X146124Y17820D01*
X144623Y18129D01*
X124136Y32474D01*
X123332Y33779D01*
X121985Y36531D01*
X120912Y39401D01*
X120121Y42361D01*
X119622Y45385D01*
X119417Y48442D01*
X119510Y51505D01*
X119900Y54544D01*
X120582Y57531D01*
X121551Y60438D01*
X122797Y63238D01*
X124308Y65903D01*
X126071Y68410D01*
X128068Y70733D01*
X130282Y72853D01*
X132690Y74747D01*
X135270Y76399D01*
X137999Y77794D01*
X140850Y78917D01*
X143796Y79759D01*
X146810Y80311D01*
X149864Y80568D01*
X152927Y80528D01*
D02*
G37*
G36*
X50959D02*
X54005Y80191D01*
X55504Y79876D01*
X55504Y79876D01*
X75796Y65667D01*
X76605Y64366D01*
X77963Y61620D01*
X79048Y58754D01*
X79851Y55797D01*
X80363Y52776D01*
X80580Y49719D01*
X80500Y46656D01*
X80123Y43615D01*
X79453Y40625D01*
X78496Y37714D01*
X77261Y34910D01*
X75761Y32238D01*
X74009Y29724D01*
X72021Y27393D01*
X69816Y25264D01*
X67416Y23360D01*
X64842Y21697D01*
X62119Y20291D01*
X59273Y19156D01*
X56330Y18303D01*
X53318Y17738D01*
X50266Y17469D01*
X47202Y17496D01*
X44155Y17820D01*
X42654Y18129D01*
X22167Y32474D01*
X21364Y33779D01*
X20017Y36531D01*
X18943Y39401D01*
X18153Y42361D01*
X17653Y45385D01*
X17449Y48442D01*
X17542Y51505D01*
X17932Y54544D01*
X18614Y57531D01*
X19582Y60438D01*
X20828Y63238D01*
X22340Y65903D01*
X24103Y68410D01*
X26100Y70733D01*
X28313Y72853D01*
X30721Y74747D01*
X33302Y76399D01*
X36031Y77794D01*
X38881Y78917D01*
X41828Y79759D01*
X44842Y80311D01*
X47895Y80568D01*
X50959Y80528D01*
D02*
G37*
D59*
X532483Y492129D02*
D03*
Y11813D02*
D03*
D76*
X478349Y525593D02*
D03*
X27562Y-19682D02*
D03*
D77*
X533467Y257876D02*
D03*
Y246065D02*
D03*
D78*
X541341Y234255D02*
D03*
Y269688D02*
D03*
X389895Y14044D02*
D03*
X387807Y12234D02*
D03*
X391704Y16132D02*
D03*
X393514Y18220D02*
D03*
X385719Y10425D02*
D03*
X389895Y116013D02*
D03*
X389898Y83989D02*
D03*
X391708Y81901D02*
D03*
X387810Y85799D02*
D03*
X385722Y87608D02*
D03*
X393517Y79813D02*
D03*
X387807Y114203D02*
D03*
X391704Y118100D02*
D03*
X393514Y120188D02*
D03*
X385719Y112393D02*
D03*
Y214362D02*
D03*
X393514Y222157D02*
D03*
X391704Y220069D02*
D03*
X387807Y216172D02*
D03*
X393517Y181782D02*
D03*
X385722Y189577D02*
D03*
X387810Y187767D02*
D03*
X391708Y183870D02*
D03*
X389898Y185958D02*
D03*
X389895Y217981D02*
D03*
X385719Y316330D02*
D03*
X393514Y324125D02*
D03*
X391704Y322037D02*
D03*
X387807Y318140D02*
D03*
X393517Y283750D02*
D03*
X385722Y291545D02*
D03*
X387810Y289736D02*
D03*
X391708Y285838D02*
D03*
X389898Y287926D02*
D03*
X389895Y319950D02*
D03*
X385719Y418299D02*
D03*
X393514Y426094D02*
D03*
X391704Y424006D02*
D03*
X387807Y420109D02*
D03*
X393517Y385719D02*
D03*
X385722Y393514D02*
D03*
X387810Y391704D02*
D03*
X391708Y387807D02*
D03*
X389898Y389895D02*
D03*
X389895Y421918D02*
D03*
X393517Y487687D02*
D03*
X385722Y495482D02*
D03*
X387810Y493673D02*
D03*
X391708Y489775D02*
D03*
X389898Y491863D02*
D03*
X491867D02*
D03*
X493676Y489775D02*
D03*
X489779Y493673D02*
D03*
X487691Y495482D02*
D03*
X495486Y487687D02*
D03*
X491863Y421918D02*
D03*
X491867Y389895D02*
D03*
X493676Y387807D02*
D03*
X489779Y391704D02*
D03*
X487691Y393514D02*
D03*
X495486Y385719D02*
D03*
X489775Y420109D02*
D03*
X493673Y424006D02*
D03*
X495482Y426094D02*
D03*
X487687Y418299D02*
D03*
X491863Y319950D02*
D03*
X491867Y287926D02*
D03*
X493676Y285838D02*
D03*
X489779Y289736D02*
D03*
X487691Y291545D02*
D03*
X495486Y283750D02*
D03*
X489775Y318140D02*
D03*
X493673Y322037D02*
D03*
X495482Y324125D02*
D03*
X487687Y316330D02*
D03*
X491863Y217981D02*
D03*
X491867Y185958D02*
D03*
X493676Y183870D02*
D03*
X489779Y187767D02*
D03*
X487691Y189577D02*
D03*
X495486Y181782D02*
D03*
X489775Y216172D02*
D03*
X493673Y220069D02*
D03*
X495482Y222157D02*
D03*
X487687Y214362D02*
D03*
Y112393D02*
D03*
X495482Y120188D02*
D03*
X493673Y118100D02*
D03*
X489775Y114203D02*
D03*
X495486Y79813D02*
D03*
X487691Y87608D02*
D03*
X489779Y85799D02*
D03*
X493676Y81901D02*
D03*
X491867Y83989D02*
D03*
X491863Y116013D02*
D03*
X487687Y10425D02*
D03*
X495482Y18220D02*
D03*
X493673Y16132D02*
D03*
X489775Y12234D02*
D03*
X491863Y14044D02*
D03*
X287926D02*
D03*
X285838Y12234D02*
D03*
X289736Y16132D02*
D03*
X291545Y18220D02*
D03*
X283750Y10425D02*
D03*
X287926Y116013D02*
D03*
X287930Y83989D02*
D03*
X289739Y81901D02*
D03*
X285842Y85799D02*
D03*
X283754Y87608D02*
D03*
X291549Y79813D02*
D03*
X285838Y114203D02*
D03*
X289736Y118100D02*
D03*
X291545Y120188D02*
D03*
X283750Y112393D02*
D03*
Y214362D02*
D03*
X291545Y222157D02*
D03*
X289736Y220069D02*
D03*
X285838Y216172D02*
D03*
X291549Y181782D02*
D03*
X283754Y189577D02*
D03*
X285842Y187767D02*
D03*
X289739Y183870D02*
D03*
X287930Y185958D02*
D03*
X287926Y217981D02*
D03*
X283750Y316330D02*
D03*
X291545Y324125D02*
D03*
X289736Y322037D02*
D03*
X285838Y318140D02*
D03*
X291549Y283750D02*
D03*
X283754Y291545D02*
D03*
X285842Y289736D02*
D03*
X289739Y285838D02*
D03*
X287930Y287926D02*
D03*
X287926Y319950D02*
D03*
X283750Y418299D02*
D03*
X291545Y426094D02*
D03*
X289736Y424006D02*
D03*
X285838Y420109D02*
D03*
X291549Y385719D02*
D03*
X283754Y393514D02*
D03*
X285842Y391704D02*
D03*
X289739Y387807D02*
D03*
X287930Y389895D02*
D03*
X287926Y421918D02*
D03*
X291549Y487687D02*
D03*
X283754Y495482D02*
D03*
X285842Y493673D02*
D03*
X289739Y489775D02*
D03*
X287930Y491863D02*
D03*
X185961D02*
D03*
X187771Y489775D02*
D03*
X183873Y493673D02*
D03*
X181785Y495482D02*
D03*
X189580Y487687D02*
D03*
X185958Y421918D02*
D03*
X185961Y389895D02*
D03*
X187771Y387807D02*
D03*
X183873Y391704D02*
D03*
X181785Y393514D02*
D03*
X189580Y385719D02*
D03*
X183870Y420109D02*
D03*
X187767Y424006D02*
D03*
X189577Y426094D02*
D03*
X181782Y418299D02*
D03*
X185958Y319950D02*
D03*
X185961Y287926D02*
D03*
X187771Y285838D02*
D03*
X183873Y289736D02*
D03*
X181785Y291545D02*
D03*
X189580Y283750D02*
D03*
X183870Y318140D02*
D03*
X187767Y322037D02*
D03*
X189577Y324125D02*
D03*
X181782Y316330D02*
D03*
X185958Y217981D02*
D03*
X185961Y185958D02*
D03*
X187771Y183870D02*
D03*
X183873Y187767D02*
D03*
X181785Y189577D02*
D03*
X189580Y181782D02*
D03*
X183870Y216172D02*
D03*
X187767Y220069D02*
D03*
X189577Y222157D02*
D03*
X181782Y214362D02*
D03*
Y112393D02*
D03*
X189577Y120188D02*
D03*
X187767Y118100D02*
D03*
X183870Y114203D02*
D03*
X189580Y79813D02*
D03*
X181785Y87608D02*
D03*
X183873Y85799D02*
D03*
X187771Y81901D02*
D03*
X185961Y83989D02*
D03*
X185958Y116013D02*
D03*
X181782Y10425D02*
D03*
X189577Y18220D02*
D03*
X187767Y16132D02*
D03*
X183870Y12234D02*
D03*
X185958Y14044D02*
D03*
X83989D02*
D03*
X81901Y12234D02*
D03*
X85799Y16132D02*
D03*
X87608Y18220D02*
D03*
X79813Y10425D02*
D03*
X83989Y116013D02*
D03*
X83992Y83989D02*
D03*
X85802Y81901D02*
D03*
X81905Y85799D02*
D03*
X79817Y87608D02*
D03*
X87612Y79813D02*
D03*
X81901Y114203D02*
D03*
X85799Y118100D02*
D03*
X87608Y120188D02*
D03*
X79813Y112393D02*
D03*
Y214362D02*
D03*
X87608Y222157D02*
D03*
X85799Y220069D02*
D03*
X81901Y216172D02*
D03*
X87612Y181782D02*
D03*
X79817Y189577D02*
D03*
X81905Y187767D02*
D03*
X85802Y183870D02*
D03*
X83992Y185958D02*
D03*
X83989Y217981D02*
D03*
X79813Y316330D02*
D03*
X87608Y324125D02*
D03*
X85799Y322037D02*
D03*
X81901Y318140D02*
D03*
X87612Y283750D02*
D03*
X79817Y291545D02*
D03*
X81905Y289736D02*
D03*
X85802Y285838D02*
D03*
X83992Y287926D02*
D03*
X83989Y319950D02*
D03*
X79813Y418299D02*
D03*
X87608Y426094D02*
D03*
X85799Y424006D02*
D03*
X81901Y420109D02*
D03*
X87612Y385719D02*
D03*
X79817Y393514D02*
D03*
X81905Y391704D02*
D03*
X85802Y387807D02*
D03*
X83992Y389895D02*
D03*
X83989Y421918D02*
D03*
X87612Y487687D02*
D03*
X79817Y495482D02*
D03*
X81905Y493673D02*
D03*
X85802Y489775D02*
D03*
X83992Y491863D02*
D03*
X14039D02*
D03*
X12229Y489775D02*
D03*
X16127Y493673D02*
D03*
X18215Y495482D02*
D03*
X10420Y487687D02*
D03*
X14042Y421918D02*
D03*
X14039Y389895D02*
D03*
X12229Y387807D02*
D03*
X16127Y391704D02*
D03*
X18215Y393514D02*
D03*
X10420Y385719D02*
D03*
X16130Y420109D02*
D03*
X12233Y424006D02*
D03*
X10423Y426094D02*
D03*
X18218Y418299D02*
D03*
X14042Y319950D02*
D03*
X14039Y287926D02*
D03*
X12229Y285838D02*
D03*
X16127Y289736D02*
D03*
X18215Y291545D02*
D03*
X10420Y283750D02*
D03*
X16130Y318140D02*
D03*
X12233Y322037D02*
D03*
X10423Y324125D02*
D03*
X18218Y316330D02*
D03*
X14042Y217981D02*
D03*
X14039Y185958D02*
D03*
X12229Y183870D02*
D03*
X16127Y187767D02*
D03*
X18215Y189577D02*
D03*
X10420Y181782D02*
D03*
X16130Y216172D02*
D03*
X12233Y220069D02*
D03*
X10423Y222157D02*
D03*
X18218Y214362D02*
D03*
Y112393D02*
D03*
X10423Y120188D02*
D03*
X12233Y118100D02*
D03*
X16130Y114203D02*
D03*
X10420Y79813D02*
D03*
X18215Y87608D02*
D03*
X16127Y85799D02*
D03*
X12229Y81901D02*
D03*
X14039Y83989D02*
D03*
X14042Y116013D02*
D03*
X18218Y10425D02*
D03*
X10423Y18220D02*
D03*
X12233Y16132D02*
D03*
X16130Y12234D02*
D03*
X14042Y14044D02*
D03*
X116011D02*
D03*
X118099Y12234D02*
D03*
X114201Y16132D02*
D03*
X112392Y18220D02*
D03*
X120187Y10425D02*
D03*
X116011Y116013D02*
D03*
X116007Y83989D02*
D03*
X114198Y81901D02*
D03*
X118095Y85799D02*
D03*
X120183Y87608D02*
D03*
X112388Y79813D02*
D03*
X118099Y114203D02*
D03*
X114201Y118100D02*
D03*
X112392Y120188D02*
D03*
X120187Y112393D02*
D03*
Y214362D02*
D03*
X112392Y222157D02*
D03*
X114201Y220069D02*
D03*
X118099Y216172D02*
D03*
X112388Y181782D02*
D03*
X120183Y189577D02*
D03*
X118095Y187767D02*
D03*
X114198Y183870D02*
D03*
X116007Y185958D02*
D03*
X116011Y217981D02*
D03*
X120187Y316330D02*
D03*
X112392Y324125D02*
D03*
X114201Y322037D02*
D03*
X118099Y318140D02*
D03*
X112388Y283750D02*
D03*
X120183Y291545D02*
D03*
X118095Y289736D02*
D03*
X114198Y285838D02*
D03*
X116007Y287926D02*
D03*
X116011Y319950D02*
D03*
X120187Y418299D02*
D03*
X112392Y426094D02*
D03*
X114201Y424006D02*
D03*
X118099Y420109D02*
D03*
X112388Y385719D02*
D03*
X120183Y393514D02*
D03*
X118095Y391704D02*
D03*
X114198Y387807D02*
D03*
X116007Y389895D02*
D03*
X116011Y421918D02*
D03*
X112388Y487687D02*
D03*
X120183Y495482D02*
D03*
X118095Y493673D02*
D03*
X114198Y489775D02*
D03*
X116007Y491863D02*
D03*
X217980Y14044D02*
D03*
X220067Y12234D02*
D03*
X216170Y16132D02*
D03*
X214360Y18220D02*
D03*
X222155Y10425D02*
D03*
X217980Y116013D02*
D03*
X217976Y83989D02*
D03*
X216166Y81901D02*
D03*
X220064Y85799D02*
D03*
X222152Y87608D02*
D03*
X214357Y79813D02*
D03*
X220067Y114203D02*
D03*
X216170Y118100D02*
D03*
X214360Y120188D02*
D03*
X222155Y112393D02*
D03*
Y214362D02*
D03*
X214360Y222157D02*
D03*
X216170Y220069D02*
D03*
X220067Y216172D02*
D03*
X214357Y181782D02*
D03*
X222152Y189577D02*
D03*
X220064Y187767D02*
D03*
X216166Y183870D02*
D03*
X217976Y185958D02*
D03*
X217980Y217981D02*
D03*
X222155Y316330D02*
D03*
X214360Y324125D02*
D03*
X216170Y322037D02*
D03*
X220067Y318140D02*
D03*
X214357Y283750D02*
D03*
X222152Y291545D02*
D03*
X220064Y289736D02*
D03*
X216166Y285838D02*
D03*
X217976Y287926D02*
D03*
X217980Y319950D02*
D03*
X222155Y418299D02*
D03*
X214360Y426094D02*
D03*
X216170Y424006D02*
D03*
X220067Y420109D02*
D03*
X214357Y385719D02*
D03*
X222152Y393514D02*
D03*
X220064Y391704D02*
D03*
X216166Y387807D02*
D03*
X217976Y389895D02*
D03*
X217980Y421918D02*
D03*
X214357Y487687D02*
D03*
X222152Y495482D02*
D03*
X220064Y493673D02*
D03*
X216166Y489775D02*
D03*
X217976Y491863D02*
D03*
X319948Y14044D02*
D03*
X322036Y12234D02*
D03*
X318139Y16132D02*
D03*
X316329Y18220D02*
D03*
X324124Y10425D02*
D03*
X319948Y116013D02*
D03*
X319945Y83989D02*
D03*
X318135Y81901D02*
D03*
X322032Y85799D02*
D03*
X324120Y87608D02*
D03*
X316325Y79813D02*
D03*
X322036Y114203D02*
D03*
X318139Y118100D02*
D03*
X316329Y120188D02*
D03*
X324124Y112393D02*
D03*
Y214362D02*
D03*
X316329Y222157D02*
D03*
X318139Y220069D02*
D03*
X322036Y216172D02*
D03*
X316325Y181782D02*
D03*
X324120Y189577D02*
D03*
X322032Y187767D02*
D03*
X318135Y183870D02*
D03*
X319945Y185958D02*
D03*
X319948Y217981D02*
D03*
X324124Y316330D02*
D03*
X316329Y324125D02*
D03*
X318139Y322037D02*
D03*
X322036Y318140D02*
D03*
X316325Y283750D02*
D03*
X324120Y291545D02*
D03*
X322032Y289736D02*
D03*
X318135Y285838D02*
D03*
X319945Y287926D02*
D03*
X319948Y319950D02*
D03*
X324124Y418299D02*
D03*
X316329Y426094D02*
D03*
X318139Y424006D02*
D03*
X322036Y420109D02*
D03*
X316325Y385719D02*
D03*
X324120Y393514D02*
D03*
X322032Y391704D02*
D03*
X318135Y387807D02*
D03*
X319945Y389895D02*
D03*
X319948Y421918D02*
D03*
X316325Y487687D02*
D03*
X324120Y495482D02*
D03*
X322032Y493673D02*
D03*
X318135Y489775D02*
D03*
X319945Y491863D02*
D03*
X421916Y14044D02*
D03*
X424004Y12234D02*
D03*
X420107Y16132D02*
D03*
X418297Y18220D02*
D03*
X426092Y10425D02*
D03*
X421916Y116013D02*
D03*
X421913Y83989D02*
D03*
X420104Y81901D02*
D03*
X424001Y85799D02*
D03*
X426089Y87608D02*
D03*
X418294Y79813D02*
D03*
X424004Y114203D02*
D03*
X420107Y118100D02*
D03*
X418297Y120188D02*
D03*
X426092Y112393D02*
D03*
Y214362D02*
D03*
X418297Y222157D02*
D03*
X420107Y220069D02*
D03*
X424004Y216172D02*
D03*
X418294Y181782D02*
D03*
X426089Y189577D02*
D03*
X424001Y187767D02*
D03*
X420104Y183870D02*
D03*
X421913Y185958D02*
D03*
X421916Y217981D02*
D03*
X426092Y316330D02*
D03*
X418297Y324125D02*
D03*
X420107Y322037D02*
D03*
X424004Y318140D02*
D03*
X418294Y283750D02*
D03*
X426089Y291545D02*
D03*
X424001Y289736D02*
D03*
X420104Y285838D02*
D03*
X421913Y287926D02*
D03*
X421916Y319950D02*
D03*
X426092Y418299D02*
D03*
X418297Y426094D02*
D03*
X420107Y424006D02*
D03*
X424004Y420109D02*
D03*
X418294Y385719D02*
D03*
X426089Y393514D02*
D03*
X424001Y391704D02*
D03*
X420104Y387807D02*
D03*
X421913Y389895D02*
D03*
X421916Y421918D02*
D03*
X418294Y487687D02*
D03*
X426089Y495482D02*
D03*
X424001Y493673D02*
D03*
X420104Y489775D02*
D03*
X421913Y491863D02*
D03*
D79*
X11614Y25394D02*
D03*
X86417Y72638D02*
D03*
X113583Y25394D02*
D03*
X188386Y72638D02*
D03*
X215551Y25394D02*
D03*
X290354Y72638D02*
D03*
X317520Y25394D02*
D03*
X392323Y72638D02*
D03*
X419488Y25394D02*
D03*
X494291Y72638D02*
D03*
X11614Y127362D02*
D03*
X86417Y174606D02*
D03*
X113583Y127362D02*
D03*
X188386Y174606D02*
D03*
X215551Y127362D02*
D03*
X290354Y174606D02*
D03*
X317520Y127362D02*
D03*
X392323Y174606D02*
D03*
X419488Y127362D02*
D03*
X494291Y174606D02*
D03*
X11614Y229331D02*
D03*
X86417Y276575D02*
D03*
X113583Y229331D02*
D03*
X188386Y276575D02*
D03*
X215551Y229331D02*
D03*
X290354Y276575D02*
D03*
X317520Y229331D02*
D03*
X392323Y276575D02*
D03*
X419488Y229331D02*
D03*
X494291Y276575D02*
D03*
X11614Y331299D02*
D03*
X86417Y378543D02*
D03*
X113583Y331299D02*
D03*
X188386Y378543D02*
D03*
X215551Y331299D02*
D03*
X290354Y378543D02*
D03*
X317520Y331299D02*
D03*
X392323Y378543D02*
D03*
X419488Y331299D02*
D03*
X494291Y378543D02*
D03*
X11614Y433268D02*
D03*
X86417Y480512D02*
D03*
X113583Y433268D02*
D03*
X188386Y480512D02*
D03*
X215551Y433268D02*
D03*
X290354Y480512D02*
D03*
X317520Y433268D02*
D03*
X392323Y480512D02*
D03*
X419488Y433268D02*
D03*
X494291Y480512D02*
D03*
D80*
X56890Y93012D02*
D03*
X79170Y72528D02*
D03*
X83759Y79081D02*
D03*
X158858Y93012D02*
D03*
X181139Y72528D02*
D03*
X185727Y79081D02*
D03*
X260827Y93012D02*
D03*
X283107Y72528D02*
D03*
X287696Y79081D02*
D03*
X362795Y93012D02*
D03*
X385076Y72528D02*
D03*
X389664Y79081D02*
D03*
X464764Y93012D02*
D03*
X487044Y72528D02*
D03*
X491633Y79081D02*
D03*
X56890Y194980D02*
D03*
X79170Y174496D02*
D03*
X83759Y181050D02*
D03*
X158858Y194980D02*
D03*
X181139Y174496D02*
D03*
X185727Y181050D02*
D03*
X260827Y194980D02*
D03*
X283107Y174496D02*
D03*
X287696Y181050D02*
D03*
X362795Y194980D02*
D03*
X385076Y174496D02*
D03*
X389664Y181050D02*
D03*
X464764Y194980D02*
D03*
X487044Y174496D02*
D03*
X491633Y181050D02*
D03*
X56890Y296949D02*
D03*
X79170Y276465D02*
D03*
X83759Y283018D02*
D03*
X158858Y296949D02*
D03*
X181139Y276465D02*
D03*
X185727Y283018D02*
D03*
X260827Y296949D02*
D03*
X283107Y276465D02*
D03*
X287696Y283018D02*
D03*
X362795Y296949D02*
D03*
X385076Y276465D02*
D03*
X389664Y283018D02*
D03*
X464764Y296949D02*
D03*
X487044Y276465D02*
D03*
X491633Y283018D02*
D03*
X56890Y398917D02*
D03*
X79170Y378433D02*
D03*
X83759Y384987D02*
D03*
X158858Y398917D02*
D03*
X181139Y378433D02*
D03*
X185727Y384987D02*
D03*
X260827Y398917D02*
D03*
X283107Y378433D02*
D03*
X287696Y384987D02*
D03*
X362795Y398917D02*
D03*
X385076Y378433D02*
D03*
X389664Y384987D02*
D03*
X464764Y398917D02*
D03*
X487044Y378433D02*
D03*
X491633Y384987D02*
D03*
X56890Y500886D02*
D03*
X79170Y480402D02*
D03*
X83759Y486955D02*
D03*
X158858Y500886D02*
D03*
X181139Y480402D02*
D03*
X185727Y486955D02*
D03*
X260827Y500886D02*
D03*
X283107Y480402D02*
D03*
X287696Y486955D02*
D03*
X362795Y500886D02*
D03*
X385076Y480402D02*
D03*
X389664Y486955D02*
D03*
X464764Y500886D02*
D03*
X487044Y480402D02*
D03*
X491633Y486955D02*
D03*
D81*
X62386Y92143D02*
D03*
X59552Y88096D02*
D03*
X66515Y89324D02*
D03*
X63647Y85228D02*
D03*
X70611Y86456D02*
D03*
X67743Y82360D02*
D03*
X74707Y83588D02*
D03*
X78803Y80720D02*
D03*
X75935Y76625D02*
D03*
X71839Y79492D02*
D03*
X164354Y92143D02*
D03*
X161520Y88096D02*
D03*
X168484Y89324D02*
D03*
X165616Y85228D02*
D03*
X172580Y86456D02*
D03*
X169712Y82360D02*
D03*
X176675Y83588D02*
D03*
X180771Y80720D02*
D03*
X177903Y76625D02*
D03*
X173807Y79492D02*
D03*
X266323Y92143D02*
D03*
X263489Y88096D02*
D03*
X270452Y89324D02*
D03*
X267584Y85228D02*
D03*
X274548Y86456D02*
D03*
X271680Y82360D02*
D03*
X278644Y83588D02*
D03*
X282739Y80720D02*
D03*
X279872Y76625D02*
D03*
X275776Y79492D02*
D03*
X368291Y92143D02*
D03*
X365457Y88096D02*
D03*
X372421Y89324D02*
D03*
X369553Y85228D02*
D03*
X376517Y86456D02*
D03*
X373649Y82360D02*
D03*
X380612Y83588D02*
D03*
X384708Y80720D02*
D03*
X381840Y76625D02*
D03*
X377744Y79492D02*
D03*
X470260Y92143D02*
D03*
X467426Y88096D02*
D03*
X474389Y89324D02*
D03*
X471521Y85228D02*
D03*
X478485Y86456D02*
D03*
X475617Y82360D02*
D03*
X482581Y83588D02*
D03*
X486677Y80720D02*
D03*
X483809Y76625D02*
D03*
X479713Y79492D02*
D03*
X62386Y194112D02*
D03*
X59552Y190065D02*
D03*
X66515Y191292D02*
D03*
X63647Y187197D02*
D03*
X70611Y188425D02*
D03*
X67743Y184329D02*
D03*
X74707Y185557D02*
D03*
X78803Y182689D02*
D03*
X75935Y178593D02*
D03*
X71839Y181461D02*
D03*
X164354Y194112D02*
D03*
X161520Y190065D02*
D03*
X168484Y191292D02*
D03*
X165616Y187197D02*
D03*
X172580Y188425D02*
D03*
X169712Y184329D02*
D03*
X176675Y185557D02*
D03*
X180771Y182689D02*
D03*
X177903Y178593D02*
D03*
X173807Y181461D02*
D03*
X266323Y194112D02*
D03*
X263489Y190065D02*
D03*
X270452Y191292D02*
D03*
X267584Y187197D02*
D03*
X274548Y188425D02*
D03*
X271680Y184329D02*
D03*
X278644Y185557D02*
D03*
X282739Y182689D02*
D03*
X279872Y178593D02*
D03*
X275776Y181461D02*
D03*
X368291Y194112D02*
D03*
X365457Y190065D02*
D03*
X372421Y191292D02*
D03*
X369553Y187197D02*
D03*
X376517Y188425D02*
D03*
X373649Y184329D02*
D03*
X380612Y185557D02*
D03*
X384708Y182689D02*
D03*
X381840Y178593D02*
D03*
X377744Y181461D02*
D03*
X470260Y194112D02*
D03*
X467426Y190065D02*
D03*
X474389Y191292D02*
D03*
X471521Y187197D02*
D03*
X478485Y188425D02*
D03*
X475617Y184329D02*
D03*
X482581Y185557D02*
D03*
X486677Y182689D02*
D03*
X483809Y178593D02*
D03*
X479713Y181461D02*
D03*
X62386Y296080D02*
D03*
X59552Y292033D02*
D03*
X66515Y293261D02*
D03*
X63647Y289165D02*
D03*
X70611Y290393D02*
D03*
X67743Y286297D02*
D03*
X74707Y287525D02*
D03*
X78803Y284657D02*
D03*
X75935Y280561D02*
D03*
X71839Y283429D02*
D03*
X164354Y296080D02*
D03*
X161520Y292033D02*
D03*
X168484Y293261D02*
D03*
X165616Y289165D02*
D03*
X172580Y290393D02*
D03*
X169712Y286297D02*
D03*
X176675Y287525D02*
D03*
X180771Y284657D02*
D03*
X177903Y280561D02*
D03*
X173807Y283429D02*
D03*
X266323Y296080D02*
D03*
X263489Y292033D02*
D03*
X270452Y293261D02*
D03*
X267584Y289165D02*
D03*
X274548Y290393D02*
D03*
X271680Y286297D02*
D03*
X278644Y287525D02*
D03*
X282739Y284657D02*
D03*
X279872Y280561D02*
D03*
X275776Y283429D02*
D03*
X368291Y296080D02*
D03*
X365457Y292033D02*
D03*
X372421Y293261D02*
D03*
X369553Y289165D02*
D03*
X376517Y290393D02*
D03*
X373649Y286297D02*
D03*
X380612Y287525D02*
D03*
X384708Y284657D02*
D03*
X381840Y280561D02*
D03*
X377744Y283429D02*
D03*
X470260Y296080D02*
D03*
X467426Y292033D02*
D03*
X474389Y293261D02*
D03*
X471521Y289165D02*
D03*
X478485Y290393D02*
D03*
X475617Y286297D02*
D03*
X482581Y287525D02*
D03*
X486677Y284657D02*
D03*
X483809Y280561D02*
D03*
X479713Y283429D02*
D03*
X62386Y398049D02*
D03*
X59552Y394002D02*
D03*
X66515Y395229D02*
D03*
X63647Y391134D02*
D03*
X70611Y392361D02*
D03*
X67743Y388266D02*
D03*
X74707Y389494D02*
D03*
X78803Y386626D02*
D03*
X75935Y382530D02*
D03*
X71839Y385398D02*
D03*
X164354Y398049D02*
D03*
X161520Y394002D02*
D03*
X168484Y395229D02*
D03*
X165616Y391134D02*
D03*
X172580Y392361D02*
D03*
X169712Y388266D02*
D03*
X176675Y389494D02*
D03*
X180771Y386626D02*
D03*
X177903Y382530D02*
D03*
X173807Y385398D02*
D03*
X266323Y398049D02*
D03*
X263489Y394002D02*
D03*
X270452Y395229D02*
D03*
X267584Y391134D02*
D03*
X274548Y392361D02*
D03*
X271680Y388266D02*
D03*
X278644Y389494D02*
D03*
X282739Y386626D02*
D03*
X279872Y382530D02*
D03*
X275776Y385398D02*
D03*
X368291Y398049D02*
D03*
X365457Y394002D02*
D03*
X372421Y395229D02*
D03*
X369553Y391134D02*
D03*
X376517Y392361D02*
D03*
X373649Y388266D02*
D03*
X380612Y389494D02*
D03*
X384708Y386626D02*
D03*
X381840Y382530D02*
D03*
X377744Y385398D02*
D03*
X470260Y398049D02*
D03*
X467426Y394002D02*
D03*
X474389Y395229D02*
D03*
X471521Y391134D02*
D03*
X478485Y392361D02*
D03*
X475617Y388266D02*
D03*
X482581Y389494D02*
D03*
X486677Y386626D02*
D03*
X483809Y382530D02*
D03*
X479713Y385398D02*
D03*
X62386Y500017D02*
D03*
X59552Y495970D02*
D03*
X66515Y497198D02*
D03*
X63647Y493102D02*
D03*
X70611Y494330D02*
D03*
X67743Y490234D02*
D03*
X74707Y491462D02*
D03*
X78803Y488594D02*
D03*
X75935Y484499D02*
D03*
X71839Y487366D02*
D03*
X164354Y500017D02*
D03*
X161520Y495970D02*
D03*
X168484Y497198D02*
D03*
X165616Y493102D02*
D03*
X172580Y494330D02*
D03*
X169712Y490234D02*
D03*
X176675Y491462D02*
D03*
X180771Y488594D02*
D03*
X177903Y484499D02*
D03*
X173807Y487366D02*
D03*
X266323Y500017D02*
D03*
X263489Y495970D02*
D03*
X270452Y497198D02*
D03*
X267584Y493102D02*
D03*
X274548Y494330D02*
D03*
X271680Y490234D02*
D03*
X278644Y491462D02*
D03*
X282739Y488594D02*
D03*
X279872Y484499D02*
D03*
X275776Y487366D02*
D03*
X368291Y500017D02*
D03*
X365457Y495970D02*
D03*
X372421Y497198D02*
D03*
X369553Y493102D02*
D03*
X376517Y494330D02*
D03*
X373649Y490234D02*
D03*
X380612Y491462D02*
D03*
X384708Y488594D02*
D03*
X381840Y484499D02*
D03*
X377744Y487366D02*
D03*
X470260Y500017D02*
D03*
X467426Y495970D02*
D03*
X474389Y497198D02*
D03*
X471521Y493102D02*
D03*
X478485Y494330D02*
D03*
X475617Y490234D02*
D03*
X482581Y491462D02*
D03*
X486677Y488594D02*
D03*
X483809Y484499D02*
D03*
X479713Y487366D02*
D03*
D82*
X93012Y55118D02*
D03*
X90158Y65059D02*
D03*
X194980Y55118D02*
D03*
X192126Y65059D02*
D03*
X296949Y55118D02*
D03*
X294094Y65059D02*
D03*
X398917Y55118D02*
D03*
X396063Y65059D02*
D03*
X500886Y55118D02*
D03*
X498032Y65059D02*
D03*
X93012Y157087D02*
D03*
X90158Y167028D02*
D03*
X194980Y157087D02*
D03*
X192126Y167028D02*
D03*
X296949Y157087D02*
D03*
X294094Y167028D02*
D03*
X398917Y157087D02*
D03*
X396063Y167028D02*
D03*
X500886Y157087D02*
D03*
X498032Y167028D02*
D03*
X93012Y259055D02*
D03*
X90158Y268996D02*
D03*
X194980Y259055D02*
D03*
X192126Y268996D02*
D03*
X296949Y259055D02*
D03*
X294094Y268996D02*
D03*
X398917Y259055D02*
D03*
X396063Y268996D02*
D03*
X500886Y259055D02*
D03*
X498032Y268996D02*
D03*
X93012Y361024D02*
D03*
X90158Y370965D02*
D03*
X194980Y361024D02*
D03*
X192126Y370965D02*
D03*
X296949Y361024D02*
D03*
X294094Y370965D02*
D03*
X398917Y361024D02*
D03*
X396063Y370965D02*
D03*
X500886Y361024D02*
D03*
X498032Y370965D02*
D03*
X93012Y462992D02*
D03*
X90158Y472933D02*
D03*
X194980Y462992D02*
D03*
X192126Y472933D02*
D03*
X296949Y462992D02*
D03*
X294094Y472933D02*
D03*
X398917Y462992D02*
D03*
X396063Y472933D02*
D03*
X500886Y462992D02*
D03*
X498032Y472933D02*
D03*
D83*
X49016Y49016D02*
D03*
X150984D02*
D03*
X252953D02*
D03*
X354921D02*
D03*
X456890D02*
D03*
X49016Y150984D02*
D03*
X150984D02*
D03*
X252953D02*
D03*
X354921D02*
D03*
X456890D02*
D03*
X49016Y252953D02*
D03*
X150984D02*
D03*
X252953D02*
D03*
X354921D02*
D03*
X456890D02*
D03*
X49016Y354921D02*
D03*
X150984D02*
D03*
X252953D02*
D03*
X354921D02*
D03*
X456890D02*
D03*
X49016Y456890D02*
D03*
X150984D02*
D03*
X252953D02*
D03*
X354921D02*
D03*
X456890D02*
D03*
D84*
X15201Y72694D02*
D03*
X82830Y25340D02*
D03*
X117170Y72694D02*
D03*
X184798Y25340D02*
D03*
X219138Y72694D02*
D03*
X286767Y25340D02*
D03*
X321107Y72694D02*
D03*
X388735Y25340D02*
D03*
X423075Y72694D02*
D03*
X490704Y25340D02*
D03*
X15201Y174662D02*
D03*
X82830Y127308D02*
D03*
X117170Y174662D02*
D03*
X184798Y127308D02*
D03*
X219138Y174662D02*
D03*
X286767Y127308D02*
D03*
X321107Y174662D02*
D03*
X388735Y127308D02*
D03*
X423075Y174662D02*
D03*
X490704Y127308D02*
D03*
X15201Y276631D02*
D03*
X82830Y229277D02*
D03*
X117170Y276631D02*
D03*
X184798Y229277D02*
D03*
X219138Y276631D02*
D03*
X286767Y229277D02*
D03*
X321107Y276631D02*
D03*
X388735Y229277D02*
D03*
X423075Y276631D02*
D03*
X490704Y229277D02*
D03*
X15201Y378599D02*
D03*
X82830Y331245D02*
D03*
X117170Y378599D02*
D03*
X184798Y331245D02*
D03*
X219138Y378599D02*
D03*
X286767Y331245D02*
D03*
X321107Y378599D02*
D03*
X388735Y331245D02*
D03*
X423075Y378599D02*
D03*
X490704Y331245D02*
D03*
X15201Y480568D02*
D03*
X82830Y433214D02*
D03*
X117170Y480568D02*
D03*
X184798Y433214D02*
D03*
X219138Y480568D02*
D03*
X286767Y433214D02*
D03*
X321107Y480568D02*
D03*
X388735Y433214D02*
D03*
X423075Y480568D02*
D03*
X490704Y433214D02*
D03*
M02*
