G04 Layer_Color=128*
%FSLAX25Y25*%
%MOIN*%
G70*
G01*
G75*
G04:AMPARAMS|DCode=85|XSize=88.19mil|YSize=198.03mil|CornerRadius=0mil|HoleSize=0mil|Usage=FLASHONLY|Rotation=145.000|XOffset=0mil|YOffset=0mil|HoleType=Round|Shape=Rectangle|*
%AMROTATEDRECTD85*
4,1,4,0.09291,0.05582,-0.02067,-0.10640,-0.09291,-0.05582,0.02067,0.10640,0.09291,0.05582,0.0*
%
%ADD85ROTATEDRECTD85*%

D85*
X15201Y72694D02*
D03*
X82830Y25340D02*
D03*
X117170Y72694D02*
D03*
X184798Y25340D02*
D03*
X219138Y72694D02*
D03*
X286767Y25340D02*
D03*
X321107Y72694D02*
D03*
X388735Y25340D02*
D03*
X423075Y72694D02*
D03*
X490704Y25340D02*
D03*
X15201Y174662D02*
D03*
X82830Y127308D02*
D03*
X117170Y174662D02*
D03*
X184798Y127308D02*
D03*
X219138Y174662D02*
D03*
X286767Y127308D02*
D03*
X321107Y174662D02*
D03*
X388735Y127308D02*
D03*
X423075Y174662D02*
D03*
X490704Y127308D02*
D03*
X15201Y276631D02*
D03*
X82830Y229277D02*
D03*
X117170Y276631D02*
D03*
X184798Y229277D02*
D03*
X219138Y276631D02*
D03*
X286767Y229277D02*
D03*
X321107Y276631D02*
D03*
X388735Y229277D02*
D03*
X423075Y276631D02*
D03*
X490704Y229277D02*
D03*
X15201Y378599D02*
D03*
X82830Y331245D02*
D03*
X117170Y378599D02*
D03*
X184798Y331245D02*
D03*
X219138Y378599D02*
D03*
X286767Y331245D02*
D03*
X321107Y378599D02*
D03*
X388735Y331245D02*
D03*
X423075Y378599D02*
D03*
X490704Y331245D02*
D03*
X15201Y480568D02*
D03*
X82830Y433214D02*
D03*
X117170Y480568D02*
D03*
X184798Y433214D02*
D03*
X219138Y480568D02*
D03*
X286767Y433214D02*
D03*
X321107Y480568D02*
D03*
X388735Y433214D02*
D03*
X423075Y480568D02*
D03*
X490704Y433214D02*
D03*
M02*
