M48
;Layer_Color=9474304
;FILE_FORMAT=2:5
INCH,LZ
;TYPE=PLATED
T2F00S00C0.01181
T3F00S00C0.01378
T4F00S00C0.01968
T5F00S00C0.03900
T6F00S00C0.03937
T7F00S00C0.04724
T8F00S00C0.13386
;TYPE=NON_PLATED
T1F00S00C0.05000
%
T02
X0015059Y001811
X0031004Y0011417
X0035236Y0006693
X003937Y0029232
X0027165Y0033268
X0005315Y0034154
X0010531Y0039764
X0009154Y0051673
X001063Y0053937
X0012598Y0051968
X000374Y005502
X0028346Y0054921
X0063779Y0059842
X0065748Y0057874
X0068701
X0071653
X0074606
X0077559
X0071653Y0049016
X0062402Y0035728
X006191Y0017028
X0067716Y0021457
X0070866Y0021752
X0078103Y0012791
X0083465Y0028346
X0087402
X0089272Y0039665
X0093998Y0039173
X0083464Y0039173
X0107283Y0034154
X01125Y0039764
X0111122Y0051673
X0112598Y0053937
X0114567Y0051968
X0105709Y005502
X0130315Y0054921
X0129134Y0033268
X0141339Y0029232
X0132972Y0011417
X0137205Y0006693
X0117028Y001811
X0163878Y0017028
X0169685Y0021457
X0172835Y0021752
X0180072Y0012791
X0185433Y0028346
X018937
X019124Y0039665
X0195967Y0039173
X0185433Y0039173
X0173622Y0049016
Y0057874
X0176575
X0179528
X0170669
X0167717
X0165748Y0059842
X016437Y0035728
X0209252Y0034154
X0214469Y0039764
X021309Y0051673
X0214567Y0053937
X0216535Y0051968
X0207677Y005502
X0232283Y0054921
X0231102Y0033268
X0234941Y0011417
X0218996Y001811
X0239173Y0006693
X0243307Y0029232
X0266339Y0035728
X0265846Y0017028
X0271654Y0021457
X0274803Y0021752
X028204Y0012791
X0287402Y0028346
X0291339
X0293209Y0039665
X0297935Y0039173
X0287402Y0039173
X027559Y0049016
Y0057874
X0278543
X0281496
X0272638
X0269685
X0267717Y0059842
X0309646Y005502
X0316535Y0053937
X0315059Y0051673
X0318504Y0051968
X0316437Y0039764
X0311221Y0034154
X0333071Y0033268
X0345276Y0029232
X0336909Y0011417
X0341142Y0006693
X0320965Y001811
X0367815Y0017028
X0373622Y0021457
X0376772Y0021752
X0384009Y0012791
X038937Y0028346
X038937Y0039173
X0377559Y0049016
Y0057874
X0380512
X0383465
X0374606
X0371654
X0369685Y0059842
X0368307Y0035728
X0334252Y0054921
X0395177Y0039665
X0399904Y0039173
X0393307Y0028346
X0413189Y0034154
X0418405Y0039764
X0417028Y0051673
X0418504Y0053937
X0420472Y0051968
X0411614Y005502
X0436221Y0054921
X0435039Y0033268
X0447244Y0029232
X0438878Y0011417
X044311Y0006693
X0422933Y001811
X0469783Y0017028
X0475591Y0021457
X047874Y0021752
X0485977Y0012791
X0491339Y0028346
X0495276
X0497146Y0039665
X0501872Y0039173
X0491338Y0039173
X0479528Y0049016
Y0057874
X048248
X0485433
X0476575
X0473622
X0471654Y0059842
X0470276Y0035728
X0469685Y0061811
X0464764Y0069685
Y0072638
Y007559
Y0078543
X0465847Y0081695
X0467618Y0086122
X0468817Y0093029
X0474017Y0089077
X0482581Y0083588
X0488386Y0083268
X0479628Y0079577
X0447638Y0082284
X0443898Y008937
X0449627Y0094095
X044311Y0108661
X0438878Y0113386
X0422933Y0120079
X0413189Y0136122
X0418405Y0141732
X0417028Y0153642
X0418504Y0155905
X0420472Y0153937
X0411614Y0156988
X0436221Y015689
X0435039Y0135236
X0447244Y0131201
X0470276Y0137697
X0469783Y0118996
X0475591Y0123425
X047874Y0123721
X0485977Y0114759
X0491339Y0130315
X0495276
X0497146Y0141634
X0501872Y0141141
X0491338Y0141142
X0479528Y0150984
Y0159843
X048248
X0485433
X0476575
X0473622
X0471654Y0161811
X0469685Y0163779
X0464764Y0171653
Y0174606
Y0177559
Y0180512
X0465847Y0183663
X0467618Y0188091
X0468817Y0194998
X0474017Y0191045
X0482581Y0185557
X0488386Y0185236
X0479628Y0181546
X0447638Y0184252
X0443898Y0191339
X0449627Y0196063
X044311Y021063
X0438878Y0215354
X0434842Y0184843
X0434252Y018189
X0437205
X0440256Y018061
X0422242Y0182088
X0399904Y0141141
X0395177Y0141634
X0393307Y0130315
X0422242Y008012
X0434252Y0079921
X0437205
X0440256Y0078642
X0434842Y0082874
X0485977Y0216728
X0384009
X0386417Y0185236
X0380612Y0185557
X037766Y0181546
X0372048Y0191045
X0366848Y0194998
X036565Y0188091
X0363878Y0183663
X0362795Y0180512
Y0177559
Y0174606
Y0171653
X0367717Y0163779
X0369685Y0161811
X0371654Y0159843
X0374606
X0377559
X0380512
X0383465
X0377559Y0150984
X038937Y0141142
X038937Y0130315
X0376772Y0123721
X0373622Y0123425
X0367815Y0118996
X0368307Y0137697
X0345276Y0131201
X0333071Y0135236
X0311221Y0136122
X0316437Y0141732
X0315059Y0153642
X0316535Y0155905
X0318504Y0153937
X0309646Y0156988
X0334252Y015689
X0335236Y018189
X0332283
X0332874Y0184843
X0338287Y018061
X0345669Y0184252
X0341929Y0191339
X0347658Y0196063
X0341142Y021063
X0336909Y0215354
X0320274Y0182088
X0284449Y0185236
X0278644Y0185557
X0275691Y0181546
X027008Y0191045
X026488Y0194998
X0263681Y0188091
X026191Y0183663
X0260827Y0180512
Y0177559
Y0174606
Y0171653
X0265748Y0163779
X0267717Y0161811
X0269685Y0159843
X0272638
X027559
X0278543
X0281496
X027559Y0150984
X0287402Y0141142
X0293209Y0141634
X0297935Y0141141
X0291339Y0130315
X0287402
X0274803Y0123721
X0271654Y0123425
X0265846Y0118996
X0266339Y0137697
X0243307Y0131201
X0239173Y0108661
X0239961Y008937
X024569Y0094095
X0243701Y0082284
X026191Y0081695
X0260827Y0078543
Y007559
Y0072638
Y0069685
X0265748Y0061811
X0263681Y0086122
X026488Y0093029
X027008Y0089077
X0278644Y0083588
X0284449Y0083268
X0275691Y0079577
X028204Y0114759
X0320965Y0120079
X0336909Y0113386
X0341142Y0108661
X0341929Y008937
X0347658Y0094095
X0345669Y0082284
X0338287Y0078642
X0335236Y0079921
X0332283
X0332874Y0082874
X0320274Y008012
X0362795Y0078543
Y007559
Y0072638
Y0069685
X0367717Y0061811
X0363878Y0081695
X036565Y0086122
X0366848Y0093029
X0372048Y0089077
X0380612Y0083588
X0386417Y0083268
X037766Y0079577
X0384009Y0114759
X028204Y0216728
X0239173Y021063
X0239961Y0191339
X024569Y0196063
X0243701Y0184252
X0236319Y018061
X0233268Y018189
X0230315
X0230906Y0184843
X0218305Y0182088
X0216535Y0153937
X021309Y0153642
X0214567Y0155905
X0207677Y0156988
X0214469Y0141732
X0209252Y0136122
X0195967Y0141141
X019124Y0141634
X0185433Y0141142
X0185433Y0130315
X018937
X0172835Y0123721
X0169685Y0123425
X0163878Y0118996
X016437Y0137697
X0173622Y0150984
Y0159843
X0176575
X0179528
X0170669
X0167717
X0165748Y0161811
X0163779Y0163779
X0158858Y0171653
Y0174606
Y0177559
Y0180512
X0159941Y0183663
X0161713Y0188091
X0162911Y0194998
X0168111Y0191045
X0176675Y0185557
X018248Y0185236
X0173723Y0181546
X0141732Y0184252
X0137992Y0191339
X0143721Y0196063
X0137205Y021063
X0132972Y0215354
X0128937Y0184843
X0128347Y018189
X0131299
X013435Y018061
X0116337Y0182088
X0114567Y0153937
X0111122Y0153642
X0112598Y0155905
X0105709Y0156988
X01125Y0141732
X0107283Y0136122
X0093998Y0141141
X0089272Y0141634
X0083464Y0141142
X0083465Y0130315
X0087402
X0117028Y0120079
X0132972Y0113386
X0137205Y0108661
X0137992Y008937
X0143721Y0094095
X0141732Y0082284
X013435Y0078642
X0131299Y0079921
X0128347
X0128937Y0082874
X0116337Y008012
X0080512Y0083268
X0159941Y0081695
X0158858Y0078543
Y007559
Y0072638
Y0069685
X0163779Y0061811
X0161713Y0086122
X0162911Y0093029
X0168111Y0089077
X0176675Y0083588
X018248Y0083268
X0173723Y0079577
X0180072Y0114759
X0218996Y0120079
X0234941Y0113386
X0231102Y0135236
X0232283Y015689
X0234941Y0215354
X0180072Y0216728
X0130315Y015689
X0129134Y0135236
X0141339Y0131201
X0080512Y0185236
X0218305Y008012
X0230315Y0079921
X0233268
X0236319Y0078642
X0230906Y0082874
X0074707Y0083588
X0071754Y0079577
X0066143Y0089077
X0060943Y0093029
X0059744Y0086122
X0057973Y0081695
X005689Y0078543
Y007559
Y0072638
Y0069685
X0061811Y0061811
X0039764Y0082284
X0036024Y008937
X0041753Y0094095
X0035236Y0108661
X0031004Y0113386
X0015059Y0120079
X0005315Y0136122
X0010531Y0141732
X0009154Y0153642
X001063Y0155905
X0012598Y0153937
X000374Y0156988
X0028346Y015689
X0027165Y0135236
X003937Y0131201
X0062402Y0137697
X006191Y0118996
X0067716Y0123425
X0070866Y0123721
X0078103Y0114759
X0071653Y0150984
Y0159843
X0074606
X0077559
X0068701
X0065748
X0063779Y0161811
X0061811Y0163779
X005689Y0171653
Y0174606
Y0177559
Y0180512
X0057973Y0183663
X0059744Y0188091
X0060943Y0194998
X0066143Y0191045
X0074707Y0185557
X0071754Y0181546
X0039764Y0184252
X0036024Y0191339
X0041753Y0196063
X0035236Y021063
X0031004Y0215354
X0026969Y0184843
X0026378Y018189
X0029331
X0032382Y018061
X0014368Y0182088
X0078103Y0216728
X0032382Y0078642
X0029331Y0079921
X0026378
X0026969Y0082874
X0014368Y008012
X0015059Y0222047
X0005315Y023809
X0010531Y0243701
X0009154Y025561
X001063Y0257874
X0012598Y0255906
X000374Y0258957
X0028346Y0258858
X0027165Y0237205
X003937Y0233169
X0062402Y0239665
X006191Y0220965
X0067716Y0225394
X0070866Y0225689
X0071653Y0252953
Y0261811
X0074606
X0077559
X0068701
X0065748
X0063779Y0263779
X0061811Y0265748
X005689Y0273622
Y0276575
Y0279528
Y028248
X0057973Y0285631
X0059744Y0290059
X0060943Y0296966
X0066143Y0293014
X0074707Y0287525
X0071754Y0283514
X0039764Y0286221
X0036024Y0293307
X0041753Y0298031
X0035236Y0312598
X0031004Y0317323
X0015059Y0324016
X0005315Y0340059
X0010531Y0345669
X0009154Y0357579
X001063Y0359842
X0012598Y0357874
X000374Y0360925
X0028346Y0360827
X0027165Y0339173
X003937Y0335138
X0062402Y0341634
X006191Y0322933
X0067716Y0327362
X0070866Y0327658
X0078103Y0318696
X0071653Y0354921
Y0363779
X0074606
X0077559
X0068701
X0065748
X0063779Y0365748
X0061811Y0367717
X0032382Y0282579
X0029331Y0283858
X0026378
X0026969Y0286811
X0014368Y0284057
X0080512Y0287205
X0116337Y0284057
X0128347Y0283858
X0131299
X013435Y0282579
X0128937Y0286811
X0141732Y0286221
X0137992Y0293307
X0143721Y0298031
X0162911Y0296966
X0161713Y0290059
X0159941Y0285631
X0158858Y028248
Y0279528
Y0276575
Y0273622
X0163779Y0265748
X0165748Y0263779
X0167717Y0261811
X0170669
X0173622
X0176575
X0179528
X0173622Y0252953
X0185433Y024311
X019124Y0243602
X0195967Y024311
X018937Y0232283
X0185433
X0172835Y0225689
X0169685Y0225394
X0163878Y0220965
X016437Y0239665
X0141339Y0233169
X0129134Y0237205
X0107283Y023809
X01125Y0243701
X0111122Y025561
X0112598Y0257874
X0114567Y0255906
X0105709Y0258957
X0130315Y0258858
X0117028Y0222047
X0087402Y0232283
X0083465
X0083464Y024311
X0089272Y0243602
X0093998Y024311
X0087402Y0334252
X0083465
X0083464Y0345079
X0089272Y0345571
X0093998Y0345078
X0107283Y0340059
X01125Y0345669
X0111122Y0357579
X0112598Y0359842
X0114567Y0357874
X0105709Y0360925
X0130315Y0360827
X0129134Y0339173
X0141339Y0335138
X0132972Y0317323
X0137205Y0312598
X0117028Y0324016
X0163878Y0322933
X0169685Y0327362
X0172835Y0327658
X0180072Y0318696
X0185433Y0334252
X018937
X019124Y0345571
X0195967Y0345078
X0185433Y0345079
X0173622Y0354921
Y0363779
X0176575
X0179528
X0170669
X0167717
X0165748Y0365748
X0163779Y0367717
X016437Y0341634
X0209252Y0340059
X0214469Y0345669
X021309Y0357579
X0214567Y0359842
X0216535Y0357874
X0207677Y0360925
X0232283Y0360827
X0231102Y0339173
X0234941Y0317323
X0218996Y0324016
X0218305Y0284057
X0230315Y0283858
X0233268
X0236319Y0282579
X0230906Y0286811
X0232283Y0258858
X0216535Y0255906
X021309Y025561
X0214567Y0257874
X0207677Y0258957
X0214469Y0243701
X0209252Y023809
X0231102Y0237205
X0218996Y0222047
X018248Y0287205
X0176675Y0287525
X0173723Y0283514
X0168111Y0293014
X0239961Y0293307
X024569Y0298031
X0243701Y0286221
X026191Y0285631
X0260827Y028248
Y0279528
Y0276575
Y0273622
X0265748Y0265748
X0267717Y0263779
X0269685Y0261811
X0272638
X027559
X0278543
X0281496
X027559Y0252953
X0287402Y024311
X0293209Y0243602
X0297935Y024311
X0291339Y0232283
X0287402
X0274803Y0225689
X0271654Y0225394
X0265846Y0220965
X0266339Y0239665
X0243307Y0233169
X0311221Y023809
X0316437Y0243701
X0315059Y025561
X0316535Y0257874
X0318504Y0255906
X0309646Y0258957
X0334252Y0258858
X0333071Y0237205
X0345276Y0233169
X0368307Y0239665
X0367815Y0220965
X0373622Y0225394
X0376772Y0225689
X038937Y0232283
X038937Y024311
X0377559Y0252953
Y0261811
X0380512
X0383465
X0374606
X0371654
X0369685Y0263779
X0367717Y0265748
X0362795Y0273622
Y0276575
Y0279528
Y028248
X0363878Y0285631
X036565Y0290059
X0366848Y0296966
X0372048Y0293014
X0380612Y0287525
X0386417Y0287205
X037766Y0283514
X0345669Y0286221
X0341929Y0293307
X0347658Y0298031
X0341142Y0312598
X0336909Y0317323
X0320965Y0324016
X0311221Y0340059
X0316437Y0345669
X0315059Y0357579
X0316535Y0359842
X0318504Y0357874
X0309646Y0360925
X0334252Y0360827
X0333071Y0339173
X0345276Y0335138
X0368307Y0341634
X0367815Y0322933
X0373622Y0327362
X0376772Y0327658
X0384009Y0318696
X038937Y0334252
X038937Y0345079
X0377559Y0354921
Y0363779
X0380512
X0383465
X0374606
X0371654
X0369685Y0365748
X0367717Y0367717
X0281496Y0363779
X0278543
X027559
X0272638
X0269685
X0267717Y0365748
X0265748Y0367717
X027559Y0354921
X0287402Y0345079
X0293209Y0345571
X0297935Y0345078
X0291339Y0334252
X0287402
X0274803Y0327658
X0271654Y0327362
X0265846Y0322933
X0266339Y0341634
X0243307Y0335138
X0239173Y0312598
X026488Y0296966
X0263681Y0290059
X027008Y0293014
X0278644Y0287525
X0284449Y0287205
X0275691Y0283514
X028204Y0318696
X0320274Y0284057
X0332283Y0283858
X0335236
X0338287Y0282579
X0332874Y0286811
X0320965Y0222047
X0393307Y0232283
X0395177Y0243602
X0399904Y024311
X0413189Y023809
X0418405Y0243701
X0417028Y025561
X0418504Y0257874
X0420472Y0255906
X0411614Y0258957
X0436221Y0258858
X0435039Y0237205
X0447244Y0233169
X0470276Y0239665
X0469783Y0220965
X0475591Y0225394
X047874Y0225689
X0491339Y0232283
X0495276
X0497146Y0243602
X0501872Y024311
X0491338Y024311
X0479528Y0252953
Y0261811
X048248
X0485433
X0476575
X0473622
X0471654Y0263779
X0469685Y0265748
X0464764Y0273622
Y0276575
Y0279528
Y028248
X0465847Y0285631
X0467618Y0290059
X0468817Y0296966
X0474017Y0293014
X0482581Y0287525
X0488386Y0287205
X0479628Y0283514
X0447638Y0286221
X0443898Y0293307
X0449627Y0298031
X044311Y0312598
X0438878Y0317323
X0422933Y0324016
X0413189Y0340059
X0418405Y0345669
X0417028Y0357579
X0418504Y0359842
X0420472Y0357874
X0411614Y0360925
X0436221Y0360827
X0435039Y0339173
X0447244Y0335138
X0470276Y0341634
X0469783Y0322933
X0475591Y0327362
X047874Y0327658
X0485977Y0318696
X0491339Y0334252
X0495276
X0497146Y0345571
X0501872Y0345078
X0491338Y0345079
X0479528Y0354921
Y0363779
X048248
X0485433
X0476575
X0473622
X0471654Y0365748
X0469685Y0367717
X0399904Y0345078
X0395177Y0345571
X0393307Y0334252
X0422242Y0284057
X0434252Y0283858
X0437205
X0440256Y0282579
X0434842Y0286811
X0422933Y0222047
X0422242Y0386025
X0434252Y0385827
X0437205
X0440256Y0384547
X0434842Y0388779
X0447638Y0388189
X0443898Y0395276
X0449627Y04
X0468817Y0398935
X0467618Y0392028
X0465847Y03876
X0464764Y0384449
Y0381496
Y0378543
Y037559
X0479628Y0385483
X0482581Y0389494
X0488386Y0389173
X0474017Y0394982
X0469783Y0424902
X0475591Y0429331
X047874Y0429626
X0485977Y0420665
X0491339Y0436221
X0495276
X0497146Y0447539
X0501872Y0447047
X0491338Y0447047
X0479528Y045689
Y0465748
X048248
X0485433
X0476575
X0473622
X0471654Y0467717
X0469685Y0469685
X0464764Y0477559
Y0480512
Y0483464
Y0486417
X0465847Y0489569
X0467618Y0493996
X0468817Y0500903
X0474017Y0496951
X0482581Y0491462
X0488386Y0491142
X0479628Y0487451
X0447638Y0490158
X0443898Y0497244
X0449627Y0501968
X0440256Y0486516
X0437205Y0487795
X0434252
X0434842Y0490748
X0422242Y0487994
X0420472Y0459842
X0417028Y0459547
X0418504Y0461811
X0411614Y0462894
X0418405Y0447638
X0413189Y0442028
X0399904Y0447047
X0395177Y0447539
X0393307Y0436221
X0422933Y0425984
X0438878Y0419291
X044311Y0414567
X0447244Y0437106
X0435039Y0441142
X0436221Y0462795
X0470276Y0443602
X038937Y0447047
X038937Y0436221
X0376772Y0429626
X0373622Y0429331
X0367815Y0424902
X0368307Y0443602
X0377559Y045689
Y0465748
X0380512
X0383465
X0374606
X0371654
X0369685Y0467717
X0367717Y0469685
X0362795Y0477559
Y0480512
Y0483464
Y0486417
X0363878Y0489569
X036565Y0493996
X0366848Y0500903
X0372048Y0496951
X0380612Y0491462
X0386417Y0491142
X037766Y0487451
X0345669Y0490158
X0341929Y0497244
X0347658Y0501968
X0338287Y0486516
X0335236Y0487795
X0332283
X0332874Y0490748
X0320274Y0487994
X0318504Y0459842
X0315059Y0459547
X0316535Y0461811
X0309646Y0462894
X0316437Y0447638
X0311221Y0442028
X0297935Y0447047
X0293209Y0447539
X0287402Y0447047
X0287402Y0436221
X0291339
X0274803Y0429626
X0271654Y0429331
X0265846Y0424902
X0266339Y0443602
X027559Y045689
Y0465748
X0278543
X0281496
X0272638
X0269685
X0267717Y0467717
X0265748Y0469685
X0260827Y0477559
Y0480512
Y0483464
Y0486417
X026191Y0489569
X0263681Y0493996
X026488Y0500903
X027008Y0496951
X0278644Y0491462
X0284449Y0491142
X0275691Y0487451
X0243701Y0490158
X0239961Y0497244
X024569Y0501968
X0243307Y0437106
X0239173Y0414567
X0239961Y0395276
X024569Y04
X0243701Y0388189
X026191Y03876
X0260827Y0384449
Y0381496
Y0378543
Y037559
X0263681Y0392028
X026488Y0398935
X027008Y0394982
X0278644Y0389494
X0284449Y0389173
X0275691Y0385483
X028204Y0420665
X0320965Y0425984
X0336909Y0419291
X0341142Y0414567
X0341929Y0395276
X0347658Y04
X0345669Y0388189
X0338287Y0384547
X0335236Y0385827
X0332283
X0332874Y0388779
X0320274Y0386025
X0362795Y0384449
Y0381496
Y0378543
Y037559
X0363878Y03876
X036565Y0392028
X0366848Y0398935
X0372048Y0394982
X0380612Y0389494
X0386417Y0389173
X037766Y0385483
X0384009Y0420665
X0345276Y0437106
X0333071Y0441142
X0334252Y0462795
X0232283
X0216535Y0459842
X021309Y0459547
X0214567Y0461811
X0207677Y0462894
X0214469Y0447638
X0209252Y0442028
X0195967Y0447047
X019124Y0447539
X0185433Y0447047
X0185433Y0436221
X018937
X0172835Y0429626
X0169685Y0429331
X0163878Y0424902
X016437Y0443602
X0173622Y045689
Y0465748
X0176575
X0179528
X0170669
X0167717
X0165748Y0467717
X0163779Y0469685
X0158858Y0477559
Y0480512
Y0483464
Y0486417
X0159941Y0489569
X0161713Y0493996
X0162911Y0500903
X0168111Y0496951
X0176675Y0491462
X018248Y0491142
X0173723Y0487451
X0141732Y0490158
X0137992Y0497244
X0143721Y0501968
X013435Y0486516
X0131299Y0487795
X0128347
X0128937Y0490748
X0116337Y0487994
X0114567Y0459842
X0111122Y0459547
X0112598Y0461811
X0105709Y0462894
X01125Y0447638
X0107283Y0442028
X0093998Y0447047
X0089272Y0447539
X0083464Y0447047
X0083465Y0436221
X0087402
X0117028Y0425984
X0132972Y0419291
X0137205Y0414567
X0137992Y0395276
X0143721Y04
X0141732Y0388189
X013435Y0384547
X0131299Y0385827
X0128347
X0128937Y0388779
X0116337Y0386025
X0080512Y0389173
X0159941Y03876
X0158858Y0384449
Y0381496
Y0378543
Y037559
X0161713Y0392028
X0162911Y0398935
X0168111Y0394982
X0176675Y0389494
X018248Y0389173
X0173723Y0385483
X0180072Y0420665
X0218996Y0425984
X0234941Y0419291
X0231102Y0441142
X0230315Y0487795
X0233268
X0236319Y0486516
X0230906Y0490748
X0218305Y0487994
Y0386025
X0230315Y0385827
X0233268
X0236319Y0384547
X0230906Y0388779
X0141339Y0437106
X0129134Y0441142
X0130315Y0462795
X0080512Y0491142
X0074707Y0491462
X0071754Y0487451
X0066143Y0496951
X0060943Y0500903
X0059744Y0493996
X0057973Y0489569
X005689Y0486417
Y0483464
Y0480512
Y0477559
X0061811Y0469685
X0063779Y0467717
X0065748Y0465748
X0068701
X0071653
X0074606
X0077559
X0071653Y045689
X0062402Y0443602
X006191Y0424902
X0067716Y0429331
X0070866Y0429626
X0078103Y0420665
X0074707Y0389494
X0071754Y0385483
X0066143Y0394982
X0060943Y0398935
X0059744Y0392028
X0057973Y03876
X005689Y0384449
Y0381496
Y0378543
Y037559
X0039764Y0388189
X0036024Y0395276
X0041753Y04
X0035236Y0414567
X0031004Y0419291
X0015059Y0425984
X0005315Y0442028
X0010531Y0447638
X0009154Y0459547
X001063Y0461811
X0012598Y0459842
X000374Y0462894
X0028346Y0462795
X0027165Y0441142
X003937Y0437106
X0039764Y0490158
X0036024Y0497244
X0041753Y0501968
X0032382Y0486516
X0029331Y0487795
X0026378
X0026969Y0490748
X0014368Y0487994
Y0386025
X0026378Y0385827
X0029331
X0032382Y0384547
X0026969Y0388779
T03
X0531498Y0011813
Y0492129
T04
X0014042Y0014044
X0012233Y0016132
X0010423Y001822
X001613Y0012234
X0018218Y0010425
X0079813
X0081901Y0012234
X0083989Y0014044
X0085799Y0016132
X0087608Y001822
X0112392
X0114201Y0016132
X0116011Y0014044
X0118099Y0012234
X0120187Y0010425
X0181782
X018387Y0012234
X0185958Y0014044
X0187767Y0016132
X0189577Y001822
X021436
X021617Y0016132
X021798Y0014044
X0220067Y0012234
X0222155Y0010425
X028375
X0285838Y0012234
X0287926Y0014044
X0289736Y0016132
X0291545Y001822
X0316329
X0318139Y0016132
X0319948Y0014044
X0322036Y0012234
X0324124Y0010425
X0385719
X0387807Y0012234
X0389895Y0014044
X0391704Y0016132
X0393514Y001822
X0418297
X0420107Y0016132
X0421916Y0014044
X0424004Y0012234
X0426092Y0010425
X0487687
X0489775Y0012234
X0491863Y0014044
X0493673Y0016132
X0495482Y001822
X0495486Y0079813
X0493676Y0081901
X0491867Y0083989
X0489779Y0085799
X0487691Y0087608
X0487687Y0112393
X0489775Y0114203
X0491863Y0116013
X0493673Y01181
X0495482Y0120188
X0495486Y0181782
X0493676Y018387
X0491867Y0185958
X0489779Y0187767
X0487691Y0189577
X0487687Y0214362
X0489775Y0216172
X0426092Y0214362
X0424004Y0216172
X0424001Y0187767
X0421913Y0185958
X0420104Y018387
X0418294Y0181782
X0426089Y0189577
X0393517Y0181782
X0393514Y0120188
X0418297
X0420107Y01181
X0421916Y0116013
X0424004Y0114203
X0426092Y0112393
X0426089Y0087608
X0424001Y0085799
X0421913Y0083989
X0420104Y0081901
X0418294Y0079813
X0393517
X0391708Y0081901
X0389898Y0083989
X038781Y0085799
X0385722Y0087608
X0385719Y0112393
X0387807Y0114203
X0389895Y0116013
X0391704Y01181
X0391708Y018387
X0389898Y0185958
X038781Y0187767
X0385722Y0189577
X0385719Y0214362
X0387807Y0216172
X0324124Y0214362
X0322036Y0216172
X0322032Y0187767
X0319945Y0185958
X0318135Y018387
X0316325Y0181782
X032412Y0189577
X028793Y0185958
X0285842Y0187767
X0283754Y0189577
X0289739Y018387
X0291549Y0181782
X0285838Y0216172
X028375Y0214362
X0291545Y0120188
X0289736Y01181
X0287926Y0116013
X0285838Y0114203
X028375Y0112393
X0283754Y0087608
X0285842Y0085799
X028793Y0083989
X0289739Y0081901
X0291549Y0079813
X0316325
X0318135Y0081901
X0319945Y0083989
X0322032Y0085799
X032412Y0087608
X0324124Y0112393
X0322036Y0114203
X0319948Y0116013
X0318139Y01181
X0316329Y0120188
X021436
X021617Y01181
X021798Y0116013
X0220067Y0114203
X0222155Y0112393
X0222152Y0087608
X0220064Y0085799
X0217976Y0083989
X0216166Y0081901
X0214357Y0079813
X018958
X0187771Y0081901
X0185961Y0083989
X0183873Y0085799
X0181785Y0087608
X0181782Y0112393
X018387Y0114203
X0185958Y0116013
X0187767Y01181
X0189577Y0120188
X018958Y0181782
X0187771Y018387
X0185961Y0185958
X0183873Y0187767
X0181785Y0189577
X0181782Y0214362
X018387Y0216172
X0220067
X0222155Y0214362
X0222152Y0189577
X0220064Y0187767
X0217976Y0185958
X0216166Y018387
X0214357Y0181782
X0112388
X0114198Y018387
X0116007Y0185958
X0118095Y0187767
X0120183Y0189577
X0120187Y0214362
X0118099Y0216172
X0081901
X0081905Y0187767
X0083992Y0185958
X0085802Y018387
X0087612Y0181782
X0087608Y0120188
X0085799Y01181
X0083989Y0116013
X0081901Y0114203
X0081905Y0085799
X0083992Y0083989
X0085802Y0081901
X0087612Y0079813
X0112388
X0114198Y0081901
X0116007Y0083989
X0118095Y0085799
X0120183Y0087608
X0120187Y0112393
X0118099Y0114203
X0116011Y0116013
X0114201Y01181
X0112392Y0120188
X0079813Y0112393
X0079817Y0087608
X0018215
X0016127Y0085799
X0014039Y0083989
X0012229Y0081901
X001042Y0079813
X0014042Y0116013
X0012233Y01181
X0010423Y0120188
X001613Y0114203
X0018218Y0112393
X0018215Y0189577
X0016127Y0187767
X0014039Y0185958
X0012229Y018387
X001042Y0181782
X001613Y0216172
X0018218Y0214362
X0079813
X0079817Y0189577
X0014042Y0217981
X0012233Y0220069
X0010423Y0222157
X001042Y028375
X0012229Y0285838
X0014039Y0287926
X0016127Y0289736
X0018215Y0291545
X0018218Y031633
X001613Y031814
X0014042Y031995
X0012233Y0322037
X0010423Y0324125
X0079813Y031633
X0079817Y0291545
X0081905Y0289736
X0083992Y0287926
X0085802Y0285838
X0087612Y028375
X0112388
X0114198Y0285838
X0116007Y0287926
X0118095Y0289736
X0120183Y0291545
X0120187Y031633
X0118099Y031814
X0116011Y031995
X0114201Y0322037
X0112392Y0324125
X0087608
X0085799Y0322037
X0083989Y031995
X0081901Y031814
X0087608Y0222157
X0085799Y0220069
X0083989Y0217981
X0116011
X0114201Y0220069
X0112392Y0222157
X0189577
X0187767Y0220069
X0185958Y0217981
X021798
X021617Y0220069
X021436Y0222157
X0214357Y028375
X0216166Y0285838
X0217976Y0287926
X0220064Y0289736
X0222152Y0291545
X0222155Y031633
X0220067Y031814
X021798Y031995
X021617Y0322037
X021436Y0324125
X0189577
X0187767Y0322037
X0185958Y031995
X018387Y031814
X0181782Y031633
X0181785Y0291545
X0183873Y0289736
X0185961Y0287926
X0187771Y0285838
X018958Y028375
X0291549
X0289739Y0285838
X028793Y0287926
X0285842Y0289736
X0283754Y0291545
X028375Y031633
X0285838Y031814
X0287926Y031995
X0289736Y0322037
X0291545Y0324125
X0316329
X0318139Y0322037
X0319948Y031995
X0322036Y031814
X0324124Y031633
X032412Y0291545
X0322032Y0289736
X0319945Y0287926
X0318135Y0285838
X0316325Y028375
X0316329Y0222157
X0318139Y0220069
X0319948Y0217981
X0287926
X0289736Y0220069
X0291545Y0222157
X0391704Y0220069
X0389895Y0217981
X0391708Y0285838
X0389898Y0287926
X038781Y0289736
X0385722Y0291545
X0385719Y031633
X0387807Y031814
X0389895Y031995
X0391704Y0322037
X0393514Y0324125
X0418297
X0420107Y0322037
X0421916Y031995
X0424004Y031814
X0426092Y031633
X0426089Y0291545
X0424001Y0289736
X0421913Y0287926
X0420104Y0285838
X0418294Y028375
X0393517
X0393514Y0222157
X0418297
X0420107Y0220069
X0421916Y0217981
X0491863
X0493673Y0220069
X0495482Y0222157
X0495486Y028375
X0493676Y0285838
X0491867Y0287926
X0489779Y0289736
X0487691Y0291545
X0487687Y031633
X0489775Y031814
X0491863Y031995
X0493673Y0322037
X0495482Y0324125
X0495486Y0385719
X0493676Y0387807
X0491867Y0389895
X0489779Y0391704
X0487691Y0393514
X0487687Y0418299
X0489775Y0420109
X0491863Y0421918
X0493673Y0424006
X0495482Y0426094
X0495486Y0487687
X0493676Y0489775
X0491867Y0491863
X0489779Y0493673
X0487691Y0495482
X0426089
X0424001Y0493673
X0421913Y0491863
X0420104Y0489775
X0418294Y0487687
X0393517
X0393514Y0426094
X0418297
X0420107Y0424006
X0421916Y0421918
X0424004Y0420109
X0426092Y0418299
X0426089Y0393514
X0424001Y0391704
X0421913Y0389895
X0420104Y0387807
X0418294Y0385719
X0393517
X0391708Y0387807
X0389898Y0389895
X038781Y0391704
X0385722Y0393514
X0385719Y0418299
X0387807Y0420109
X0389895Y0421918
X0391704Y0424006
X0391708Y0489775
X0389898Y0491863
X038781Y0493673
X0385722Y0495482
X032412
X0322032Y0493673
X0319945Y0491863
X0318135Y0489775
X0316325Y0487687
X0291549
X0289739Y0489775
X028793Y0491863
X0285842Y0493673
X0283754Y0495482
X0291545Y0426094
X0289736Y0424006
X0287926Y0421918
X0285838Y0420109
X028375Y0418299
X0283754Y0393514
X0285842Y0391704
X028793Y0389895
X0289739Y0387807
X0291549Y0385719
X0316325
X0318135Y0387807
X0319945Y0389895
X0322032Y0391704
X032412Y0393514
X0324124Y0418299
X0322036Y0420109
X0319948Y0421918
X0318139Y0424006
X0316329Y0426094
X0222155Y0418299
X0220067Y0420109
X021798Y0421918
X021617Y0424006
X021436Y0426094
X0189577
X0187767Y0424006
X0185958Y0421918
X018387Y0420109
X0181782Y0418299
X0181785Y0393514
X0183873Y0391704
X0185961Y0389895
X0187771Y0387807
X018958Y0385719
X0214357
X0216166Y0387807
X0217976Y0389895
X0220064Y0391704
X0222152Y0393514
X0120183
X0118095Y0391704
X0116007Y0389895
X0114198Y0387807
X0112388Y0385719
X0087612
X0085802Y0387807
X0083992Y0389895
X0081905Y0391704
X0081901Y0420109
X0083989Y0421918
X0085799Y0424006
X0087608Y0426094
X0112392
X0114201Y0424006
X0116011Y0421918
X0118099Y0420109
X0120187Y0418299
X0112388Y0487687
X0114198Y0489775
X0116007Y0491863
X0118095Y0493673
X0120183Y0495482
X0083992Y0491863
X0081905Y0493673
X0085802Y0489775
X0087612Y0487687
X0181785Y0495482
X0183873Y0493673
X0185961Y0491863
X0187771Y0489775
X018958Y0487687
X0214357
X0216166Y0489775
X0217976Y0491863
X0220064Y0493673
X0222152Y0495482
X0079817
X0018215
X0016127Y0493673
X0014039Y0491863
X0012229Y0489775
X001042Y0487687
X0010423Y0426094
X0012233Y0424006
X0014042Y0421918
X001613Y0420109
X0018218Y0418299
X0018215Y0393514
X0016127Y0391704
X0014039Y0389895
X0012229Y0387807
X001042Y0385719
X0079817Y0393514
X0079813Y0418299
T05
X0464764Y0093012
X0491633Y0079081
X0487044Y0072528
Y0174496
X0491633Y018105
X0464764Y019498
X0389664Y018105
X0385076Y0174496
X0362795Y019498
X0287696Y018105
X0283107Y0174496
X0260827Y019498
Y0093012
X0287696Y0079081
X0283107Y0072528
X0362795Y0093012
X0389664Y0079081
X0385076Y0072528
X0181139
X0185727Y0079081
X0158858Y0093012
X0083759Y0079081
Y018105
X0158858Y019498
X0185727Y018105
X0181139Y0174496
X007917
X005689Y019498
Y0093012
X007917Y0072528
Y0276465
X005689Y0296949
X0083759Y0283018
X0158858Y0296949
X0185727Y0283018
X0181139Y0276465
X0260827Y0296949
X0287696Y0283018
X0283107Y0276465
X0362795Y0296949
X0389664Y0283018
X0385076Y0276465
X0464764Y0296949
X0491633Y0283018
X0487044Y0276465
Y0378433
X0491633Y0384987
X0464764Y0398917
Y0500886
X0491633Y0486955
X0487044Y0480402
X0385076
X0389664Y0486955
X0362795Y0500886
X0287696Y0486955
X0283107Y0480402
X0260827Y0500886
Y0398917
X0287696Y0384987
X0283107Y0378433
X0362795Y0398917
X0389664Y0384987
X0385076Y0378433
X0181139
X0185727Y0384987
X0158858Y0398917
X0083759Y0384987
Y0486955
X0158858Y0500886
X0185727Y0486955
X0181139Y0480402
X007917
X005689Y0500886
Y0398917
X007917Y0378433
T06
X0533467Y0246065
Y0257876
T07
X0011614Y0025394
X0113583
X0215551
X031752
X0419488
Y0127362
X0494291Y0174606
Y0072638
X0392323
X0290354
X031752Y0127362
X0290354Y0174606
X0392323
X0188386
X0215551Y0127362
X0188386Y0072638
X0086417
X0113583Y0127362
X0086417Y0174606
X0011614Y0127362
Y0229331
Y0331299
X0113583
X0086417Y0276575
X0113583Y0229331
X0215551
X0188386Y0276575
X0215551Y0331299
X031752
X0290354Y0276575
X031752Y0229331
X0392323Y0276575
X0419488Y0229331
Y0331299
X0494291Y0276575
Y0378543
Y0480512
X0419488Y0433268
X0392323Y0480512
Y0378543
X0290354
X031752Y0433268
X0290354Y0480512
X0188386
X0215551Y0433268
X0188386Y0378543
X0086417
X0113583Y0433268
X0086417Y0480512
X0011614Y0433268
T08
X0027562Y-0019682
X0478349Y0525593
T01
X0541341Y0234255
Y0269688
M30
