G04 Layer_Color=65535*
%FSLAX25Y25*%
%MOIN*%
G70*
G01*
G75*
%ADD11C,0.00787*%
D11*
X291732Y-77363D02*
Y-80512D01*
X292782Y-79462D01*
X293831Y-80512D01*
Y-77363D01*
X296455Y-80512D02*
X295406D01*
X294881Y-79987D01*
Y-78938D01*
X295406Y-78413D01*
X296455D01*
X296980Y-78938D01*
Y-79462D01*
X294881D01*
X298029Y-77363D02*
Y-80512D01*
Y-78938D01*
X298554Y-78413D01*
X299604D01*
X300129Y-78938D01*
Y-80512D01*
X301178Y-78413D02*
Y-80512D01*
Y-79462D01*
X301703Y-78938D01*
X302228Y-78413D01*
X302752D01*
X305901Y-80512D02*
X304851D01*
X304327Y-79987D01*
Y-78938D01*
X304851Y-78413D01*
X305901D01*
X306426Y-78938D01*
Y-79462D01*
X304327D01*
X307475Y-80512D02*
Y-78413D01*
X309050D01*
X309574Y-78938D01*
Y-80512D01*
X310624Y-77363D02*
Y-80512D01*
X312198D01*
X312723Y-79987D01*
Y-79462D01*
Y-78938D01*
X312198Y-78413D01*
X310624D01*
X314297D02*
X315347D01*
X315872Y-78938D01*
Y-80512D01*
X314297D01*
X313772Y-79987D01*
X314297Y-79462D01*
X315872D01*
X319020Y-78413D02*
X317446D01*
X316921Y-78938D01*
Y-79987D01*
X317446Y-80512D01*
X319020D01*
X320070Y-77363D02*
Y-80512D01*
Y-78938D01*
X320594Y-78413D01*
X321644D01*
X322169Y-78938D01*
Y-80512D01*
X326367D02*
Y-77363D01*
X327416Y-78413D01*
X328466Y-77363D01*
Y-80512D01*
X330040D02*
X331090D01*
X331614Y-79987D01*
Y-78938D01*
X331090Y-78413D01*
X330040D01*
X329515Y-78938D01*
Y-79987D01*
X330040Y-80512D01*
X333189Y-77888D02*
Y-78413D01*
X332664D01*
X333714D01*
X333189D01*
Y-79987D01*
X333714Y-80512D01*
X335288D02*
X336337D01*
X335813D01*
Y-78413D01*
X335288D01*
X338436Y-80512D02*
X339486D01*
X340011Y-79987D01*
Y-78938D01*
X339486Y-78413D01*
X338436D01*
X337912Y-78938D01*
Y-79987D01*
X338436Y-80512D01*
X341060D02*
Y-78413D01*
X342635D01*
X343159Y-78938D01*
Y-80512D01*
X347357Y-77363D02*
X349456D01*
X348407D01*
Y-80512D01*
X350506Y-78413D02*
Y-80512D01*
Y-79462D01*
X351031Y-78938D01*
X351555Y-78413D01*
X352080D01*
X354179D02*
X355229D01*
X355754Y-78938D01*
Y-80512D01*
X354179D01*
X353655Y-79987D01*
X354179Y-79462D01*
X355754D01*
X358902Y-78413D02*
X357328D01*
X356803Y-78938D01*
Y-79987D01*
X357328Y-80512D01*
X358902D01*
X359952D02*
Y-77363D01*
Y-79462D02*
X361526Y-78413D01*
X359952Y-79462D02*
X361526Y-80512D01*
X364675D02*
X363625D01*
X363100Y-79987D01*
Y-78938D01*
X363625Y-78413D01*
X364675D01*
X365199Y-78938D01*
Y-79462D01*
X363100D01*
X366249Y-78413D02*
Y-80512D01*
Y-79462D01*
X366774Y-78938D01*
X367299Y-78413D01*
X367823D01*
X372546D02*
X373596Y-80512D01*
X374645Y-78413D01*
X375695Y-77888D02*
X376220Y-77363D01*
X377269D01*
X377794Y-77888D01*
Y-79987D01*
X377269Y-80512D01*
X376220D01*
X375695Y-79987D01*
Y-77888D01*
X378843Y-80512D02*
Y-79987D01*
X379368D01*
Y-80512D01*
X378843D01*
X383566D02*
X381467D01*
X383566Y-78413D01*
Y-77888D01*
X383041Y-77363D01*
X381992D01*
X381467Y-77888D01*
X384616Y-80512D02*
Y-79987D01*
X385140D01*
Y-80512D01*
X384616D01*
X387240Y-77888D02*
X387764Y-77363D01*
X388814D01*
X389339Y-77888D01*
Y-79987D01*
X388814Y-80512D01*
X387764D01*
X387240Y-79987D01*
Y-77888D01*
X393537Y-78938D02*
X395636D01*
X399834Y-81561D02*
Y-78413D01*
X401408D01*
X401933Y-78938D01*
Y-79987D01*
X401408Y-80512D01*
X399834D01*
X403507Y-78413D02*
X404557D01*
X405082Y-78938D01*
Y-80512D01*
X403507D01*
X402983Y-79987D01*
X403507Y-79462D01*
X405082D01*
X406131Y-80512D02*
Y-78413D01*
X407705D01*
X408230Y-78938D01*
Y-80512D01*
X410854D02*
X409804D01*
X409280Y-79987D01*
Y-78938D01*
X409804Y-78413D01*
X410854D01*
X411379Y-78938D01*
Y-79462D01*
X409280D01*
X412428Y-80512D02*
X413478D01*
X412953D01*
Y-77363D01*
X412428D01*
X418201Y-80512D02*
X419775D01*
X420300Y-79987D01*
X419775Y-79462D01*
X418725D01*
X418201Y-78938D01*
X418725Y-78413D01*
X420300D01*
X421349D02*
Y-79987D01*
X421874Y-80512D01*
X423448D01*
Y-78413D01*
X424498Y-81561D02*
Y-78413D01*
X426072D01*
X426597Y-78938D01*
Y-79987D01*
X426072Y-80512D01*
X424498D01*
X427646Y-81561D02*
Y-78413D01*
X429221D01*
X429745Y-78938D01*
Y-79987D01*
X429221Y-80512D01*
X427646D01*
X431320D02*
X432369D01*
X432894Y-79987D01*
Y-78938D01*
X432369Y-78413D01*
X431320D01*
X430795Y-78938D01*
Y-79987D01*
X431320Y-80512D01*
X433944Y-78413D02*
Y-80512D01*
Y-79462D01*
X434468Y-78938D01*
X434993Y-78413D01*
X435518D01*
X437617Y-77888D02*
Y-78413D01*
X437092D01*
X438142D01*
X437617D01*
Y-79987D01*
X438142Y-80512D01*
X442865Y-78938D02*
X444964D01*
X449687Y-80512D02*
Y-77888D01*
Y-78938D01*
X449162D01*
X450211D01*
X449687D01*
Y-77888D01*
X450211Y-77363D01*
X453360Y-80512D02*
X452310D01*
X451786Y-79987D01*
Y-78938D01*
X452310Y-78413D01*
X453360D01*
X453885Y-78938D01*
Y-79462D01*
X451786D01*
X454934Y-77363D02*
Y-80512D01*
X456508D01*
X457033Y-79987D01*
Y-79462D01*
Y-78938D01*
X456508Y-78413D01*
X454934D01*
X461231Y-80512D02*
X462281D01*
X461756D01*
Y-77363D01*
X461231Y-77888D01*
X463855Y-77363D02*
X465954D01*
Y-77888D01*
X463855Y-79987D01*
Y-80512D01*
M02*
