G04 Layer_Color=32896*
%FSLAX25Y25*%
%MOIN*%
G70*
G01*
G75*
%ADD13C,0.00394*%
D13*
X-50555Y10167D02*
X-27409Y43223D01*
X-50555Y10167D02*
X-43947Y-11282D01*
X4428Y-45155D01*
X26845Y-44029D01*
X49991Y-10973D01*
X46365Y9589D02*
X49991Y-10973D01*
X-6847Y46849D02*
X46365Y9589D01*
X-27409Y43223D02*
X-6847Y46849D01*
X51413Y10167D02*
X74559Y43223D01*
X51413Y10167D02*
X58022Y-11282D01*
X106397Y-45155D01*
X128813Y-44029D01*
X151959Y-10973D01*
X148334Y9589D02*
X151959Y-10973D01*
X95121Y46849D02*
X148334Y9589D01*
X74559Y43223D02*
X95121Y46849D01*
X153382Y10167D02*
X176528Y43223D01*
X153382Y10167D02*
X159990Y-11282D01*
X208366Y-45155D01*
X230782Y-44029D01*
X253928Y-10973D01*
X250302Y9589D02*
X253928Y-10973D01*
X197090Y46849D02*
X250302Y9589D01*
X176528Y43223D02*
X197090Y46849D01*
X255350Y10167D02*
X278496Y43223D01*
X255350Y10167D02*
X261959Y-11282D01*
X310334Y-45155D01*
X332750Y-44029D01*
X355896Y-10973D01*
X352271Y9589D02*
X355896Y-10973D01*
X299058Y46849D02*
X352271Y9589D01*
X278496Y43223D02*
X299058Y46849D01*
X357318Y10167D02*
X380465Y43223D01*
X357318Y10167D02*
X363927Y-11282D01*
X412302Y-45155D01*
X434719Y-44029D01*
X457865Y-10973D01*
X454239Y9589D02*
X457865Y-10973D01*
X401027Y46849D02*
X454239Y9589D01*
X380465Y43223D02*
X401027Y46849D01*
X357318Y112135D02*
X380465Y145192D01*
X357318Y112135D02*
X363927Y90686D01*
X412302Y56813D01*
X434719Y57939D01*
X457865Y90996D01*
X454239Y111557D02*
X457865Y90996D01*
X401027Y148817D02*
X454239Y111557D01*
X380465Y145192D02*
X401027Y148817D01*
X255350Y112135D02*
X278496Y145192D01*
X255350Y112135D02*
X261959Y90686D01*
X310334Y56813D01*
X332750Y57939D01*
X355896Y90996D01*
X352271Y111557D02*
X355896Y90996D01*
X299058Y148817D02*
X352271Y111557D01*
X278496Y145192D02*
X299058Y148817D01*
X153382Y112135D02*
X176528Y145192D01*
X153382Y112135D02*
X159990Y90686D01*
X208366Y56813D01*
X230782Y57939D01*
X253928Y90996D01*
X250302Y111557D02*
X253928Y90996D01*
X197090Y148817D02*
X250302Y111557D01*
X176528Y145192D02*
X197090Y148817D01*
X51413Y112135D02*
X74559Y145192D01*
X51413Y112135D02*
X58022Y90686D01*
X106397Y56813D01*
X128813Y57939D01*
X151959Y90996D01*
X148334Y111557D02*
X151959Y90996D01*
X95121Y148817D02*
X148334Y111557D01*
X74559Y145192D02*
X95121Y148817D01*
X-50555Y112135D02*
X-27409Y145192D01*
X-50555Y112135D02*
X-43947Y90686D01*
X4428Y56813D01*
X26845Y57939D01*
X49991Y90996D01*
X46365Y111557D02*
X49991Y90996D01*
X-6847Y148817D02*
X46365Y111557D01*
X-27409Y145192D02*
X-6847Y148817D01*
X357318Y214104D02*
X380465Y247160D01*
X357318Y214104D02*
X363927Y192655D01*
X412302Y158782D01*
X434719Y159908D01*
X457865Y192964D01*
X454239Y213526D02*
X457865Y192964D01*
X401027Y250786D02*
X454239Y213526D01*
X380465Y247160D02*
X401027Y250786D01*
X255350Y214104D02*
X278496Y247160D01*
X255350Y214104D02*
X261959Y192655D01*
X310334Y158782D01*
X332750Y159908D01*
X355896Y192964D01*
X352271Y213526D02*
X355896Y192964D01*
X299058Y250786D02*
X352271Y213526D01*
X278496Y247160D02*
X299058Y250786D01*
X153382Y214104D02*
X176528Y247160D01*
X153382Y214104D02*
X159990Y192655D01*
X208366Y158782D01*
X230782Y159908D01*
X253928Y192964D01*
X250302Y213526D02*
X253928Y192964D01*
X197090Y250786D02*
X250302Y213526D01*
X176528Y247160D02*
X197090Y250786D01*
X51413Y214104D02*
X74559Y247160D01*
X51413Y214104D02*
X58022Y192655D01*
X106397Y158782D01*
X128813Y159908D01*
X151959Y192964D01*
X148334Y213526D02*
X151959Y192964D01*
X95121Y250786D02*
X148334Y213526D01*
X74559Y247160D02*
X95121Y250786D01*
X-50555Y214104D02*
X-27409Y247160D01*
X-50555Y214104D02*
X-43947Y192655D01*
X4428Y158782D01*
X26845Y159908D01*
X49991Y192964D01*
X46365Y213526D02*
X49991Y192964D01*
X-6847Y250786D02*
X46365Y213526D01*
X-27409Y247160D02*
X-6847Y250786D01*
X357318Y316072D02*
X380465Y349129D01*
X357318Y316072D02*
X363927Y294623D01*
X412302Y260750D01*
X434719Y261876D01*
X457865Y294933D01*
X454239Y315494D02*
X457865Y294933D01*
X401027Y352754D02*
X454239Y315494D01*
X380465Y349129D02*
X401027Y352754D01*
X255350Y316072D02*
X278496Y349129D01*
X255350Y316072D02*
X261959Y294623D01*
X310334Y260750D01*
X332750Y261876D01*
X355896Y294933D01*
X352271Y315494D02*
X355896Y294933D01*
X299058Y352754D02*
X352271Y315494D01*
X278496Y349129D02*
X299058Y352754D01*
X153382Y316072D02*
X176528Y349129D01*
X153382Y316072D02*
X159990Y294623D01*
X208366Y260750D01*
X230782Y261876D01*
X253928Y294933D01*
X250302Y315494D02*
X253928Y294933D01*
X197090Y352754D02*
X250302Y315494D01*
X176528Y349129D02*
X197090Y352754D01*
X51413Y316072D02*
X74559Y349129D01*
X51413Y316072D02*
X58022Y294623D01*
X106397Y260750D01*
X128813Y261876D01*
X151959Y294933D01*
X148334Y315494D02*
X151959Y294933D01*
X95121Y352754D02*
X148334Y315494D01*
X74559Y349129D02*
X95121Y352754D01*
X-50555Y316072D02*
X-27409Y349129D01*
X-50555Y316072D02*
X-43947Y294623D01*
X4428Y260750D01*
X26845Y261876D01*
X49991Y294933D01*
X46365Y315494D02*
X49991Y294933D01*
X-6847Y352754D02*
X46365Y315494D01*
X-27409Y349129D02*
X-6847Y352754D01*
X357318Y418041D02*
X380465Y451097D01*
X357318Y418041D02*
X363927Y396591D01*
X412302Y362719D01*
X434719Y363845D01*
X457865Y396901D01*
X454239Y417463D02*
X457865Y396901D01*
X401027Y454723D02*
X454239Y417463D01*
X380465Y451097D02*
X401027Y454723D01*
X255350Y418041D02*
X278496Y451097D01*
X255350Y418041D02*
X261959Y396591D01*
X310334Y362719D01*
X332750Y363845D01*
X355896Y396901D01*
X352271Y417463D02*
X355896Y396901D01*
X299058Y454723D02*
X352271Y417463D01*
X278496Y451097D02*
X299058Y454723D01*
X153382Y418041D02*
X176528Y451097D01*
X153382Y418041D02*
X159990Y396591D01*
X208366Y362719D01*
X230782Y363845D01*
X253928Y396901D01*
X250302Y417463D02*
X253928Y396901D01*
X197090Y454723D02*
X250302Y417463D01*
X176528Y451097D02*
X197090Y454723D01*
X51413Y418041D02*
X74559Y451097D01*
X51413Y418041D02*
X58022Y396591D01*
X106397Y362719D01*
X128813Y363845D01*
X151959Y396901D01*
X148334Y417463D02*
X151959Y396901D01*
X95121Y454723D02*
X148334Y417463D01*
X74559Y451097D02*
X95121Y454723D01*
X-50555Y418041D02*
X-27409Y451097D01*
X-50555Y418041D02*
X-43947Y396591D01*
X4428Y362719D01*
X26845Y363845D01*
X49991Y396901D01*
X46365Y417463D02*
X49991Y396901D01*
X-6847Y454723D02*
X46365Y417463D01*
X-27409Y451097D02*
X-6847Y454723D01*
X-88386Y-88386D02*
X496260D01*
Y496260D01*
X-88386D02*
X496260D01*
X-88386Y-88386D02*
Y496260D01*
M02*
